<?xml version="1.0" encoding="UTF-8" standalone="no"?>
<!DOCTYPE svg PUBLIC "-//W3C//DTD SVG 1.1//EN"
 "http://www.w3.org/Graphics/SVG/1.1/DTD/svg11.dtd">
<!-- Generated by graphviz version 2.36.0 (20140111.2315)
 -->
<!-- Title: IKnobControlBase Pages: 1 -->
<!--zoomable 408 -->
<svg id="main" version="1.1" xmlns="http://www.w3.org/2000/svg" xmlns:xlink="http://www.w3.org/1999/xlink" xml:space="preserve" onload="init(evt)">
<style type="text/css"><![CDATA[
.edge:hover path { stroke: red; }
.edge:hover polygon { stroke: red; fill: red; }
]]></style>
<script type="text/javascript"><![CDATA[
var edges = document.getElementsByTagName('g');
if (edges && edges.length) {
  for (var i=0;i<edges.length;i++) {
    if (edges[i].id.substr(0,4)=='edge') {
      edges[i].setAttribute('class','edge');
    }
  }
}
]]></script>
        <defs>
                <circle id="rim" cx="0" cy="0" r="7"/>
                <circle id="rim2" cx="0" cy="0" r="3.5"/>
                <g id="zoomPlus">
                        <use xlink:href="#rim" fill="#404040">
                                <set attributeName="fill" to="#808080" begin="zoomplus.mouseover" end="zoomplus.mouseout"/>
                        </use>
                        <path d="M-4,0h8M0,-4v8" fill="none" stroke="white" stroke-width="1.5" pointer-events="none"/>
                </g>
                <g id="zoomMin">
                        <use xlink:href="#rim" fill="#404040">
                                <set attributeName="fill" to="#808080" begin="zoomminus.mouseover" end="zoomminus.mouseout"/>
                        </use>
                        <path d="M-4,0h8" fill="none" stroke="white" stroke-width="1.5" pointer-events="none"/>
                </g>
                <g id="dirArrow">
                        <path fill="none" stroke="white" stroke-width="1.5" d="M0,-3.0v7 M-2.5,-0.5L0,-3.0L2.5,-0.5"/>
                </g>
               <g id="resetDef">
                       <use xlink:href="#rim2" fill="#404040">
                               <set attributeName="fill" to="#808080" begin="reset.mouseover" end="reset.mouseout"/>
                       </use>
               </g>
        </defs>

<script type="text/javascript">
var viewWidth = 512;
var viewHeight = 408;
var sectionId = 'dynsection-0';
</script>
<script xlink:href="svgpan.js"/>
<svg id="graph" class="graph">
<g id="viewport">
<title>IKnobControlBase</title>
<polygon fill="white" stroke="none" points="-4,4 -4,-404 508,-404 508,4 -4,4"/>
<!-- Node1 -->
<g id="node1" class="node"><title>Node1</title>
<polygon fill="#bfbfbf" stroke="black" points="88,-190.5 88,-209.5 184,-209.5 184,-190.5 88,-190.5"/>
<text text-anchor="middle" x="136" y="-197.5" font-family="Helvetica,sans-Serif" font-size="10.00">IKnobControlBase</text>
</g>
<!-- Node3 -->
<g id="node3" class="node"><title>Node3</title>
<g id="a_node3"><a xlink:href="class_i_b_knob_control.html" target="_top" xlink:title="A bitmap knob/dial control that draws a frame from a stacked bitmap. ">
<polygon fill="white" stroke="black" points="247,-380.5 247,-399.5 327,-399.5 327,-380.5 247,-380.5"/>
<text text-anchor="middle" x="287" y="-387.5" font-family="Helvetica,sans-Serif" font-size="10.00">IBKnobControl</text>
</a>
</g>
</g>
<!-- Node1&#45;&gt;Node3 -->
<g id="edge2" class="edge"><title>Node1&#45;&gt;Node3</title>
<path fill="none" stroke="midnightblue" d="M141.088,-219.964C149.452,-255.678 171.929,-330.543 220,-371 227.572,-377.373 237.172,-381.61 246.688,-384.427"/>
<polygon fill="midnightblue" stroke="midnightblue" points="144.426,-218.849 138.854,-209.838 137.591,-220.357 144.426,-218.849"/>
</g>
<!-- Node5 -->
<g id="node5" class="node"><title>Node5</title>
<g id="a_node5"><a xlink:href="class_i_s_v_g_knob.html" target="_top" xlink:title="A vector knob/dial control which rotates an SVG image. ">
<polygon fill="white" stroke="black" points="255.5,-342.5 255.5,-361.5 318.5,-361.5 318.5,-342.5 255.5,-342.5"/>
<text text-anchor="middle" x="287" y="-349.5" font-family="Helvetica,sans-Serif" font-size="10.00">ISVGKnob</text>
</a>
</g>
</g>
<!-- Node1&#45;&gt;Node5 -->
<g id="edge4" class="edge"><title>Node1&#45;&gt;Node5</title>
<path fill="none" stroke="midnightblue" d="M143.778,-219.157C155.031,-248.177 180.337,-303.061 220,-333 230.183,-340.686 243.384,-345.267 255.301,-347.995"/>
<polygon fill="midnightblue" stroke="midnightblue" points="147.037,-217.88 140.267,-209.73 140.477,-220.323 147.037,-217.88"/>
</g>
<!-- Node6 -->
<g id="node6" class="node"><title>Node6</title>
<g id="a_node6"><a xlink:href="class_i_v_knob_control.html" target="_top" xlink:title="A vector knob control drawn using graphics primitves. ">
<polygon fill="white" stroke="black" points="247,-304.5 247,-323.5 327,-323.5 327,-304.5 247,-304.5"/>
<text text-anchor="middle" x="287" y="-311.5" font-family="Helvetica,sans-Serif" font-size="10.00">IVKnobControl</text>
</a>
</g>
</g>
<!-- Node1&#45;&gt;Node6 -->
<g id="edge5" class="edge"><title>Node1&#45;&gt;Node6</title>
<path fill="none" stroke="midnightblue" d="M148.205,-218.247C162.334,-239.738 188.61,-275.034 220,-295 228.049,-300.119 237.512,-303.895 246.721,-306.666"/>
<polygon fill="midnightblue" stroke="midnightblue" points="151.085,-216.253 142.754,-209.707 145.184,-220.019 151.085,-216.253"/>
</g>
<!-- Node7 -->
<g id="node7" class="node"><title>Node7</title>
<g id="a_node7"><a xlink:href="class_test_arc_control.html" target="_top" xlink:title="Control to test drawing arcs. ">
<polygon fill="white" stroke="black" points="245.5,-266.5 245.5,-285.5 328.5,-285.5 328.5,-266.5 245.5,-266.5"/>
<text text-anchor="middle" x="287" y="-273.5" font-family="Helvetica,sans-Serif" font-size="10.00">TestArcControl</text>
</a>
</g>
</g>
<!-- Node1&#45;&gt;Node7 -->
<g id="edge6" class="edge"><title>Node1&#45;&gt;Node7</title>
<path fill="none" stroke="midnightblue" d="M156.474,-216.066C172.631,-228.711 196.659,-245.982 220,-257 227.979,-260.767 236.86,-263.943 245.455,-266.556"/>
<polygon fill="midnightblue" stroke="midnightblue" points="158.359,-213.093 148.361,-209.586 153.99,-218.562 158.359,-213.093"/>
</g>
<!-- Node8 -->
<g id="node8" class="node"><title>Node8</title>
<g id="a_node8"><a xlink:href="class_test_blend_control.html" target="_top" xlink:title="Control to test blend methods. ">
<polygon fill="white" stroke="black" points="241,-228.5 241,-247.5 333,-247.5 333,-228.5 241,-228.5"/>
<text text-anchor="middle" x="287" y="-235.5" font-family="Helvetica,sans-Serif" font-size="10.00">TestBlendControl</text>
</a>
</g>
</g>
<!-- Node1&#45;&gt;Node8 -->
<g id="edge7" class="edge"><title>Node1&#45;&gt;Node8</title>
<path fill="none" stroke="midnightblue" d="M184.492,-212.112C205.244,-217.404 229.228,-223.521 248.671,-228.48"/>
<polygon fill="midnightblue" stroke="midnightblue" points="185.154,-208.669 174.599,-209.589 183.424,-215.452 185.154,-208.669"/>
</g>
<!-- Node9 -->
<g id="node9" class="node"><title>Node9</title>
<g id="a_node9"><a xlink:href="class_test_gradient_control.html" target="_top" xlink:title="Control to test drawing gradients with path based drawing backends. ">
<polygon fill="white" stroke="black" points="235,-190.5 235,-209.5 339,-209.5 339,-190.5 235,-190.5"/>
<text text-anchor="middle" x="287" y="-197.5" font-family="Helvetica,sans-Serif" font-size="10.00">TestGradientControl</text>
</a>
</g>
</g>
<!-- Node1&#45;&gt;Node9 -->
<g id="edge8" class="edge"><title>Node1&#45;&gt;Node9</title>
<path fill="none" stroke="midnightblue" d="M194.179,-200C207.541,-200 221.69,-200 234.775,-200"/>
<polygon fill="midnightblue" stroke="midnightblue" points="194.145,-196.5 184.145,-200 194.144,-203.5 194.145,-196.5"/>
</g>
<!-- Node10 -->
<g id="node10" class="node"><title>Node10</title>
<g id="a_node10"><a xlink:href="class_test_layer_control.html" target="_top" xlink:title="Control to test IGraphics layers. ">
<polygon fill="white" stroke="black" points="241,-152.5 241,-171.5 333,-171.5 333,-152.5 241,-152.5"/>
<text text-anchor="middle" x="287" y="-159.5" font-family="Helvetica,sans-Serif" font-size="10.00">TestLayerControl</text>
</a>
</g>
</g>
<!-- Node1&#45;&gt;Node10 -->
<g id="edge9" class="edge"><title>Node1&#45;&gt;Node10</title>
<path fill="none" stroke="midnightblue" d="M184.492,-187.888C205.244,-182.596 229.228,-176.479 248.671,-171.52"/>
<polygon fill="midnightblue" stroke="midnightblue" points="183.424,-184.548 174.599,-190.411 185.154,-191.331 183.424,-184.548"/>
</g>
<!-- Node11 -->
<g id="node11" class="node"><title>Node11</title>
<g id="a_node11"><a xlink:href="class_test_multi_path_control.html" target="_top" xlink:title="Control to test drawing paths in path&#45;based drawing backends. ">
<polygon fill="white" stroke="black" points="232.5,-114.5 232.5,-133.5 341.5,-133.5 341.5,-114.5 232.5,-114.5"/>
<text text-anchor="middle" x="287" y="-121.5" font-family="Helvetica,sans-Serif" font-size="10.00">TestMultiPathControl</text>
</a>
</g>
</g>
<!-- Node1&#45;&gt;Node11 -->
<g id="edge10" class="edge"><title>Node1&#45;&gt;Node11</title>
<path fill="none" stroke="midnightblue" d="M156.474,-183.934C172.631,-171.289 196.659,-154.018 220,-143 227.871,-139.284 236.62,-136.143 245.106,-133.55"/>
<polygon fill="midnightblue" stroke="midnightblue" points="153.99,-181.438 148.361,-190.414 158.359,-186.907 153.99,-181.438"/>
</g>
<!-- Node12 -->
<g id="node12" class="node"><title>Node12</title>
<g id="a_node12"><a xlink:href="class_test_poly_control.html" target="_top" xlink:title="Control to test drawing polygons. ">
<polygon fill="white" stroke="black" points="243.5,-76.5 243.5,-95.5 330.5,-95.5 330.5,-76.5 243.5,-76.5"/>
<text text-anchor="middle" x="287" y="-83.5" font-family="Helvetica,sans-Serif" font-size="10.00">TestPolyControl</text>
</a>
</g>
</g>
<!-- Node1&#45;&gt;Node12 -->
<g id="edge11" class="edge"><title>Node1&#45;&gt;Node12</title>
<path fill="none" stroke="midnightblue" d="M148.205,-181.753C162.334,-160.262 188.61,-124.966 220,-105 227.043,-100.52 235.169,-97.0701 243.259,-94.421"/>
<polygon fill="midnightblue" stroke="midnightblue" points="145.184,-179.981 142.754,-190.293 151.085,-183.747 145.184,-179.981"/>
</g>
<!-- Node13 -->
<g id="node13" class="node"><title>Node13</title>
<g id="a_node13"><a xlink:href="class_test_text_orientation_control.html" target="_top" xlink:title="Control to test drawing text with orientation. ">
<polygon fill="white" stroke="black" points="220,-38.5 220,-57.5 354,-57.5 354,-38.5 220,-38.5"/>
<text text-anchor="middle" x="287" y="-45.5" font-family="Helvetica,sans-Serif" font-size="10.00">TestTextOrientationControl</text>
</a>
</g>
</g>
<!-- Node1&#45;&gt;Node13 -->
<g id="edge12" class="edge"><title>Node1&#45;&gt;Node13</title>
<path fill="none" stroke="midnightblue" d="M143.778,-180.843C155.031,-151.823 180.337,-96.9386 220,-67 225.139,-63.1209 231.047,-60.0328 237.17,-57.5748"/>
<polygon fill="midnightblue" stroke="midnightblue" points="140.477,-179.677 140.267,-190.27 147.037,-182.12 140.477,-179.677"/>
</g>
<!-- Node14 -->
<g id="node14" class="node"><title>Node14</title>
<g id="a_node14"><a xlink:href="class_test_text_size_control.html" target="_top" xlink:title="Control to test drawing text with varying size. ">
<polygon fill="white" stroke="black" points="233.5,-0.5 233.5,-19.5 340.5,-19.5 340.5,-0.5 233.5,-0.5"/>
<text text-anchor="middle" x="287" y="-7.5" font-family="Helvetica,sans-Serif" font-size="10.00">TestTextSizeControl</text>
</a>
</g>
</g>
<!-- Node1&#45;&gt;Node14 -->
<g id="edge13" class="edge"><title>Node1&#45;&gt;Node14</title>
<path fill="none" stroke="midnightblue" d="M141.088,-180.036C149.452,-144.322 171.929,-69.4572 220,-29 224.653,-25.0843 230.071,-21.9747 235.765,-19.5054"/>
<polygon fill="midnightblue" stroke="midnightblue" points="137.591,-179.643 138.854,-190.162 144.426,-181.151 137.591,-179.643"/>
</g>
<!-- Node2 -->
<g id="node2" class="node"><title>Node2</title>
<g id="a_node2"><a xlink:href="class_i_control.html" target="_top" xlink:title="The lowest level base class of an IGraphics control. ">
<polygon fill="white" stroke="black" points="0.5,-190.5 0.5,-209.5 51.5,-209.5 51.5,-190.5 0.5,-190.5"/>
<text text-anchor="middle" x="26" y="-197.5" font-family="Helvetica,sans-Serif" font-size="10.00">IControl</text>
</a>
</g>
</g>
<!-- Node2&#45;&gt;Node1 -->
<g id="edge1" class="edge"><title>Node2&#45;&gt;Node1</title>
<path fill="none" stroke="midnightblue" d="M61.5595,-200C69.8495,-200 78.845,-200 87.6051,-200"/>
<polygon fill="midnightblue" stroke="midnightblue" points="61.5069,-196.5 51.5069,-200 61.5068,-203.5 61.5069,-196.5"/>
</g>
<!-- Node4 -->
<g id="node4" class="node"><title>Node4</title>
<g id="a_node4"><a xlink:href="class_i_b_knob_rotater_control.html" target="_top" xlink:title="A bitmap knob/dial control that rotates an image. ">
<polygon fill="white" stroke="black" points="390.5,-380.5 390.5,-399.5 503.5,-399.5 503.5,-380.5 390.5,-380.5"/>
<text text-anchor="middle" x="447" y="-387.5" font-family="Helvetica,sans-Serif" font-size="10.00">IBKnobRotaterControl</text>
</a>
</g>
</g>
<!-- Node3&#45;&gt;Node4 -->
<g id="edge3" class="edge"><title>Node3&#45;&gt;Node4</title>
<path fill="none" stroke="midnightblue" d="M337.245,-390C354.103,-390 373.077,-390 390.401,-390"/>
<polygon fill="midnightblue" stroke="midnightblue" points="337.056,-386.5 327.056,-390 337.056,-393.5 337.056,-386.5"/>
</g>
</g>
</svg>
        <g id="navigator" transform="translate(0 0)" fill="#404254">
                <rect fill="#f2f5e9" fill-opacity="0.5" stroke="#606060" stroke-width=".5" x="0" y="0" width="60" height="60"/>
                <use id="zoomplus" xlink:href="#zoomPlus" x="17" y="9" onmousedown="handleZoom(evt,'in')"/>
                <use id="zoomminus" xlink:href="#zoomMin" x="42" y="9" onmousedown="handleZoom(evt,'out')"/>
                <use id="reset" xlink:href="#resetDef" x="30" y="36" onmousedown="handleReset()"/>
                <g id="arrowUp" xlink:href="#dirArrow" transform="translate(30 24)" onmousedown="handlePan(0,-1)">
                  <use xlink:href="#rim" fill="#404040">
                        <set attributeName="fill" to="#808080" begin="arrowUp.mouseover" end="arrowUp.mouseout"/>
                  </use>
                  <path fill="none" stroke="white" stroke-width="1.5" d="M0,-3.0v7 M-2.5,-0.5L0,-3.0L2.5,-0.5"/>
                </g>
                <g id="arrowRight" xlink:href="#dirArrow" transform="rotate(90) translate(36 -43)" onmousedown="handlePan(1,0)">
                  <use xlink:href="#rim" fill="#404040">
                        <set attributeName="fill" to="#808080" begin="arrowRight.mouseover" end="arrowRight.mouseout"/>
                  </use>
                  <path fill="none" stroke="white" stroke-width="1.5" d="M0,-3.0v7 M-2.5,-0.5L0,-3.0L2.5,-0.5"/>
                </g>
                <g id="arrowDown" xlink:href="#dirArrow" transform="rotate(180) translate(-30 -48)" onmousedown="handlePan(0,1)">
                  <use xlink:href="#rim" fill="#404040">
                        <set attributeName="fill" to="#808080" begin="arrowDown.mouseover" end="arrowDown.mouseout"/>
                  </use>
                  <path fill="none" stroke="white" stroke-width="1.5" d="M0,-3.0v7 M-2.5,-0.5L0,-3.0L2.5,-0.5"/>
                </g>
                <g id="arrowLeft" xlink:href="#dirArrow" transform="rotate(270) translate(-36 17)" onmousedown="handlePan(-1,0)">
                  <use xlink:href="#rim" fill="#404040">
                        <set attributeName="fill" to="#808080" begin="arrowLeft.mouseover" end="arrowLeft.mouseout"/>
                  </use>
                  <path fill="none" stroke="white" stroke-width="1.5" d="M0,-3.0v7 M-2.5,-0.5L0,-3.0L2.5,-0.5"/>
                </g>
        </g>
        <svg viewBox="0 0 15 15" width="100%" height="30px" preserveAspectRatio="xMaxYMin meet">
         <g id="arrow_out" transform="scale(0.3 0.3)">
          <a xlink:href="class_i_knob_control_base__inherit__graph_org.svg" target="_base">
           <rect id="button" ry="5" rx="5" y="6" x="6" height="38" width="38"
                fill="#f2f5e9" fill-opacity="0.5" stroke="#606060" stroke-width="1.0"/>
           <path id="arrow"
             d="M 11.500037,31.436501 C 11.940474,20.09759 22.043105,11.32322 32.158766,21.979434 L 37.068811,17.246167 C 37.068811,17.246167 37.088388,32 37.088388,32 L 22.160133,31.978069 C 22.160133,31.978069 26.997745,27.140456 26.997745,27.140456 C 18.528582,18.264221 13.291696,25.230495 11.500037,31.436501 z"
             style="fill:#404040;"/>
          </a>
         </g>
        </svg>
</svg>
