<?xml version="1.0" encoding="UTF-8" standalone="no"?>
<!DOCTYPE svg PUBLIC "-//W3C//DTD SVG 1.1//EN"
 "http://www.w3.org/Graphics/SVG/1.1/DTD/svg11.dtd">
<!-- Generated by graphviz version 2.36.0 (20140111.2315)
 -->
<!-- Title: IPlugVST3 Pages: 1 -->
<svg width="594pt" height="147pt"
 viewBox="0.00 0.00 594.00 147.00" xmlns="http://www.w3.org/2000/svg" xmlns:xlink="http://www.w3.org/1999/xlink">
<g id="graph0" class="graph" transform="scale(1 1) rotate(0) translate(4 143)">
<title>IPlugVST3</title>
<polygon fill="white" stroke="none" points="-4,4 -4,-143 590,-143 590,4 -4,4"/>
<!-- Node1 -->
<g id="node1" class="node"><title>Node1</title>
<polygon fill="#bfbfbf" stroke="black" points="522,-57.5 522,-76.5 586,-76.5 586,-57.5 522,-57.5"/>
<text text-anchor="middle" x="554" y="-64.5" font-family="Helvetica,sans-Serif" font-size="10.00">IPlugVST3</text>
</g>
<!-- Node2 -->
<g id="node2" class="node"><title>Node2</title>
<g id="a_node2"><a xlink:href="class_i_plug_a_p_i_base.html" target="_top" xlink:title="The base class of an IPlug plug&#45;in, which interacts with the different plug&#45;in APIs. ">
<polygon fill="white" stroke="black" points="376,-117.5 376,-136.5 454,-136.5 454,-117.5 376,-117.5"/>
<text text-anchor="middle" x="415" y="-124.5" font-family="Helvetica,sans-Serif" font-size="10.00">IPlugAPIBase</text>
</a>
</g>
</g>
<!-- Node2&#45;&gt;Node1 -->
<g id="edge1" class="edge"><title>Node2&#45;&gt;Node1</title>
<path fill="none" stroke="midnightblue" d="M461.118,-114.367C469.505,-111.585 478.107,-108.432 486,-105 504.763,-96.8403 525.03,-84.8607 538.302,-76.5417"/>
<polygon fill="midnightblue" stroke="midnightblue" points="459.89,-111.085 451.425,-117.457 462.016,-117.755 459.89,-111.085"/>
</g>
<!-- Node3 -->
<g id="node3" class="node"><title>Node3</title>
<g id="a_node3"><a xlink:href="class_i_plugin_base.html" target="_top" xlink:title="Base class that contains plug&#45;in info and state manipulation methods. ">
<polygon fill="white" stroke="black" points="213.5,-119.5 213.5,-138.5 282.5,-138.5 282.5,-119.5 213.5,-119.5"/>
<text text-anchor="middle" x="248" y="-126.5" font-family="Helvetica,sans-Serif" font-size="10.00">IPluginBase</text>
</a>
</g>
</g>
<!-- Node3&#45;&gt;Node2 -->
<g id="edge2" class="edge"><title>Node3&#45;&gt;Node2</title>
<path fill="none" stroke="midnightblue" d="M293.061,-128.466C318.895,-128.153 351.206,-127.761 375.93,-127.461"/>
<polygon fill="midnightblue" stroke="midnightblue" points="292.745,-124.969 282.788,-128.59 292.83,-131.969 292.745,-124.969"/>
</g>
<!-- Node4 -->
<g id="node4" class="node"><title>Node4</title>
<g id="a_node4"><a xlink:href="class_i_editor_delegate.html" target="_top" xlink:title="This pure virtual interface delegates communication in both directions between a UI editor and someth...">
<polygon fill="white" stroke="black" points="0,-119.5 0,-138.5 152,-138.5 152,-119.5 0,-119.5"/>
<text text-anchor="middle" x="76" y="-126.5" font-family="Helvetica,sans-Serif" font-size="10.00">EDITOR_DELEGATE_CLASS</text>
</a>
</g>
</g>
<!-- Node4&#45;&gt;Node3 -->
<g id="edge3" class="edge"><title>Node4&#45;&gt;Node3</title>
<path fill="none" stroke="midnightblue" d="M162.107,-129C180.229,-129 198.345,-129 213.159,-129"/>
<polygon fill="midnightblue" stroke="midnightblue" points="162.059,-125.5 152.059,-129 162.059,-132.5 162.059,-125.5"/>
</g>
<!-- Node5 -->
<g id="node5" class="node"><title>Node5</title>
<g id="a_node5"><a xlink:href="class_i_plug_v_s_t3_processor_base.html" target="_top" xlink:title="Shared VST3 processor code. ">
<polygon fill="white" stroke="black" points="349.5,-76.5 349.5,-95.5 480.5,-95.5 480.5,-76.5 349.5,-76.5"/>
<text text-anchor="middle" x="415" y="-83.5" font-family="Helvetica,sans-Serif" font-size="10.00">IPlugVST3ProcessorBase</text>
</a>
</g>
</g>
<!-- Node5&#45;&gt;Node1 -->
<g id="edge4" class="edge"><title>Node5&#45;&gt;Node1</title>
<path fill="none" stroke="midnightblue" d="M490.909,-75.6111C501.788,-74.1024 512.449,-72.6238 521.783,-71.3294"/>
<polygon fill="midnightblue" stroke="midnightblue" points="490.314,-72.1602 480.889,-77.0008 491.275,-79.0938 490.314,-72.1602"/>
</g>
<!-- Node6 -->
<g id="node6" class="node"><title>Node6</title>
<g id="a_node6"><a xlink:href="class_i_plug_processor.html" target="_top" xlink:title="IPlugProcessor\&lt; PLUG\l_SAMPLE_DST \&gt;">
<polygon fill="white" stroke="black" points="188.5,-70 188.5,-100 307.5,-100 307.5,-70 188.5,-70"/>
<text text-anchor="start" x="196.5" y="-88" font-family="Helvetica,sans-Serif" font-size="10.00">IPlugProcessor&lt; PLUG</text>
<text text-anchor="middle" x="248" y="-77" font-family="Helvetica,sans-Serif" font-size="10.00">_SAMPLE_DST &gt;</text>
</a>
</g>
</g>
<!-- Node6&#45;&gt;Node5 -->
<g id="edge5" class="edge"><title>Node6&#45;&gt;Node5</title>
<path fill="none" stroke="midnightblue" d="M317.93,-85.4178C328.347,-85.4809 339.061,-85.5458 349.383,-85.6084"/>
<polygon fill="midnightblue" stroke="midnightblue" points="317.658,-81.9161 307.637,-85.3554 317.616,-88.916 317.658,-81.9161"/>
</g>
<!-- Node7 -->
<g id="node7" class="node"><title>Node7</title>
<g id="a_node7"><a xlink:href="class_i_plug_v_s_t3_controller_base.html" target="_top" xlink:title="Shared VST3 controller code. ">
<polygon fill="white" stroke="black" points="351,-38.5 351,-57.5 479,-57.5 479,-38.5 351,-38.5"/>
<text text-anchor="middle" x="415" y="-45.5" font-family="Helvetica,sans-Serif" font-size="10.00">IPlugVST3ControllerBase</text>
</a>
</g>
</g>
<!-- Node7&#45;&gt;Node1 -->
<g id="edge6" class="edge"><title>Node7&#45;&gt;Node1</title>
<path fill="none" stroke="midnightblue" d="M489.312,-58.1673C500.704,-59.7472 511.917,-61.3024 521.684,-62.6568"/>
<polygon fill="midnightblue" stroke="midnightblue" points="489.673,-54.684 479.287,-56.777 488.711,-61.6176 489.673,-54.684"/>
</g>
<!-- Node8 -->
<g id="node8" class="node"><title>Node8</title>
<polygon fill="white" stroke="#bfbfbf" points="344.5,-0.5 344.5,-19.5 485.5,-19.5 485.5,-0.5 344.5,-0.5"/>
<text text-anchor="middle" x="415" y="-7.5" font-family="Helvetica,sans-Serif" font-size="10.00">Vst::SingleComponentEffect</text>
</g>
<!-- Node8&#45;&gt;Node1 -->
<g id="edge7" class="edge"><title>Node8&#45;&gt;Node1</title>
<path fill="none" stroke="midnightblue" d="M467.769,-22.468C473.991,-24.4291 480.192,-26.6094 486,-29 505.044,-36.8387 525.421,-48.9978 538.636,-57.4427"/>
<polygon fill="midnightblue" stroke="midnightblue" points="468.612,-19.0673 458.029,-19.5678 466.614,-25.7761 468.612,-19.0673"/>
</g>
</g>
</svg>
