<?xml version="1.0" encoding="UTF-8" standalone="no"?>
<!DOCTYPE svg PUBLIC "-//W3C//DTD SVG 1.1//EN"
 "http://www.w3.org/Graphics/SVG/1.1/DTD/svg11.dtd">
<!-- Generated by graphviz version 2.36.0 (20140111.2315)
 -->
<!-- Title: IControl Pages: 1 -->
<!--zoomable 1332 -->
<svg id="main" version="1.1" xmlns="http://www.w3.org/2000/svg" xmlns:xlink="http://www.w3.org/1999/xlink" xml:space="preserve" onload="init(evt)">
<style type="text/css"><![CDATA[
.edge:hover path { stroke: red; }
.edge:hover polygon { stroke: red; fill: red; }
]]></style>
<script type="text/javascript"><![CDATA[
var edges = document.getElementsByTagName('g');
if (edges && edges.length) {
  for (var i=0;i<edges.length;i++) {
    if (edges[i].id.substr(0,4)=='edge') {
      edges[i].setAttribute('class','edge');
    }
  }
}
]]></script>
        <defs>
                <circle id="rim" cx="0" cy="0" r="7"/>
                <circle id="rim2" cx="0" cy="0" r="3.5"/>
                <g id="zoomPlus">
                        <use xlink:href="#rim" fill="#404040">
                                <set attributeName="fill" to="#808080" begin="zoomplus.mouseover" end="zoomplus.mouseout"/>
                        </use>
                        <path d="M-4,0h8M0,-4v8" fill="none" stroke="white" stroke-width="1.5" pointer-events="none"/>
                </g>
                <g id="zoomMin">
                        <use xlink:href="#rim" fill="#404040">
                                <set attributeName="fill" to="#808080" begin="zoomminus.mouseover" end="zoomminus.mouseout"/>
                        </use>
                        <path d="M-4,0h8" fill="none" stroke="white" stroke-width="1.5" pointer-events="none"/>
                </g>
                <g id="dirArrow">
                        <path fill="none" stroke="white" stroke-width="1.5" d="M0,-3.0v7 M-2.5,-0.5L0,-3.0L2.5,-0.5"/>
                </g>
               <g id="resetDef">
                       <use xlink:href="#rim2" fill="#404040">
                               <set attributeName="fill" to="#808080" begin="reset.mouseover" end="reset.mouseout"/>
                       </use>
               </g>
        </defs>

<script type="text/javascript">
var viewWidth = 386;
var viewHeight = 1332;
var sectionId = 'dynsection-0';
</script>
<script xlink:href="svgpan.js"/>
<svg id="graph" class="graph">
<g id="viewport">
<title>IControl</title>
<polygon fill="white" stroke="none" points="-4,4 -4,-1328 382,-1328 382,4 -4,4"/>
<!-- Node1 -->
<g id="node1" class="node"><title>Node1</title>
<polygon fill="#bfbfbf" stroke="black" points="0.5,-658.5 0.5,-677.5 51.5,-677.5 51.5,-658.5 0.5,-658.5"/>
<text text-anchor="middle" x="26" y="-665.5" font-family="Helvetica,sans-Serif" font-size="10.00">IControl</text>
</g>
<!-- Node2 -->
<g id="node2" class="node"><title>Node2</title>
<g id="a_node2"><a xlink:href="class_g_f_x_label_control.html" target="_top" xlink:title="Control to display the graphics backend. ">
<polygon fill="white" stroke="black" points="112,-1304.5 112,-1323.5 204,-1323.5 204,-1304.5 112,-1304.5"/>
<text text-anchor="middle" x="158" y="-1311.5" font-family="Helvetica,sans-Serif" font-size="10.00">GFXLabelControl</text>
</a>
</g>
</g>
<!-- Node1&#45;&gt;Node2 -->
<g id="edge1" class="edge"><title>Node1&#45;&gt;Node2</title>
<path fill="none" stroke="midnightblue" d="M27.6219,-688.159C30.9472,-790.275 47.995,-1247.46 88,-1295 94.08,-1302.23 102.631,-1306.84 111.651,-1309.75"/>
<polygon fill="midnightblue" stroke="midnightblue" points="31.1143,-687.862 27.298,-677.979 24.1178,-688.085 31.1143,-687.862"/>
</g>
<!-- Node3 -->
<g id="node3" class="node"><title>Node3</title>
<g id="a_node3"><a xlink:href="class_i_bitmap_control.html" target="_top" xlink:title="A basic control to draw a bitmap, or one frame of a stacked bitmap depending on the current value...">
<polygon fill="white" stroke="black" points="117,-1266.5 117,-1285.5 199,-1285.5 199,-1266.5 117,-1266.5"/>
<text text-anchor="middle" x="158" y="-1273.5" font-family="Helvetica,sans-Serif" font-size="10.00">IBitmapControl</text>
</a>
</g>
</g>
<!-- Node1&#45;&gt;Node3 -->
<g id="edge2" class="edge"><title>Node1&#45;&gt;Node3</title>
<path fill="none" stroke="midnightblue" d="M27.7432,-687.852C31.5734,-785.57 50.3756,-1212.57 88,-1257 95.2266,-1265.53 105.9,-1270.42 116.704,-1273.16"/>
<polygon fill="midnightblue" stroke="midnightblue" points="31.2398,-687.696 27.3584,-677.837 24.245,-687.964 31.2398,-687.696"/>
</g>
<!-- Node5 -->
<g id="node5" class="node"><title>Node5</title>
<g id="a_node5"><a xlink:href="class_i_button_control_base.html" target="_top" xlink:title="A base class for buttons/momentary switches &#45; cannot be linked to parameters. ">
<polygon fill="white" stroke="black" points="107,-1228.5 107,-1247.5 209,-1247.5 209,-1228.5 107,-1228.5"/>
<text text-anchor="middle" x="158" y="-1235.5" font-family="Helvetica,sans-Serif" font-size="10.00">IButtonControlBase</text>
</a>
</g>
</g>
<!-- Node1&#45;&gt;Node5 -->
<g id="edge4" class="edge"><title>Node1&#45;&gt;Node5</title>
<path fill="none" stroke="midnightblue" d="M27.8866,-687.729C32.263,-781.316 52.7765,-1177.7 88,-1219 92.999,-1224.86 99.6238,-1229 106.794,-1231.9"/>
<polygon fill="midnightblue" stroke="midnightblue" points="31.3788,-687.475 27.4234,-677.646 24.3862,-687.797 31.3788,-687.475"/>
</g>
<!-- Node8 -->
<g id="node8" class="node"><title>Node8</title>
<g id="a_node8"><a xlink:href="class_i_color_picker_control.html" target="_top" xlink:title="A control for choosing a color. ">
<polygon fill="white" stroke="black" points="107,-1190.5 107,-1209.5 209,-1209.5 209,-1190.5 107,-1190.5"/>
<text text-anchor="middle" x="158" y="-1197.5" font-family="Helvetica,sans-Serif" font-size="10.00">IColorPickerControl</text>
</a>
</g>
</g>
<!-- Node1&#45;&gt;Node8 -->
<g id="edge7" class="edge"><title>Node1&#45;&gt;Node8</title>
<path fill="none" stroke="midnightblue" d="M28.0744,-688.048C33.0756,-778.148 55.2269,-1142.89 88,-1181 93.0227,-1186.84 99.6597,-1190.97 106.835,-1193.87"/>
<polygon fill="midnightblue" stroke="midnightblue" points="31.5567,-687.627 27.5161,-677.833 24.5672,-688.009 31.5567,-687.627"/>
</g>
<!-- Node9 -->
<g id="node9" class="node"><title>Node9</title>
<g id="a_node9"><a xlink:href="class_i_corner_resizer_control.html" target="_top" xlink:title="A control for resizing the plug&#45;in window by clicking and dragging in the bottom right&#45;hand corner Th...">
<polygon fill="white" stroke="black" points="101,-1152.5 101,-1171.5 215,-1171.5 215,-1152.5 101,-1152.5"/>
<text text-anchor="middle" x="158" y="-1159.5" font-family="Helvetica,sans-Serif" font-size="10.00">ICornerResizerControl</text>
</a>
</g>
</g>
<!-- Node1&#45;&gt;Node9 -->
<g id="edge8" class="edge"><title>Node1&#45;&gt;Node9</title>
<path fill="none" stroke="midnightblue" d="M26.7327,-688.179C26.0693,-769.69 27.7392,-1073.58 88,-1143 91.5839,-1147.13 95.9741,-1150.4 100.788,-1152.98"/>
<polygon fill="midnightblue" stroke="midnightblue" points="30.2362,-687.857 26.8408,-677.821 23.2365,-687.784 30.2362,-687.857"/>
</g>
<!-- Node10 -->
<g id="node10" class="node"><title>Node10</title>
<g id="a_node10"><a xlink:href="class_i_dir_browse_control_base.html" target="_top" xlink:title="An abstract IControl base class that you can inherit from in order to make a control that pops up a m...">
<polygon fill="white" stroke="black" points="98.5,-1114.5 98.5,-1133.5 217.5,-1133.5 217.5,-1114.5 98.5,-1114.5"/>
<text text-anchor="middle" x="158" y="-1121.5" font-family="Helvetica,sans-Serif" font-size="10.00">IDirBrowseControlBase</text>
</a>
</g>
</g>
<!-- Node1&#45;&gt;Node10 -->
<g id="edge9" class="edge"><title>Node1&#45;&gt;Node10</title>
<path fill="none" stroke="midnightblue" d="M26.9831,-688.031C27.3291,-765.157 32.4833,-1041.75 88,-1105 91.3606,-1108.83 95.4146,-1111.92 99.8537,-1114.41"/>
<polygon fill="midnightblue" stroke="midnightblue" points="30.4827,-687.779 26.9617,-677.786 23.4827,-687.794 30.4827,-687.779"/>
</g>
<!-- Node12 -->
<g id="node12" class="node"><title>Node12</title>
<g id="a_node12"><a xlink:href="class_i_f_p_s_display_control.html" target="_top" xlink:title="Performance display meter, based on code from NanoVG This is a special control that lives outside the...">
<polygon fill="white" stroke="black" points="106,-1076.5 106,-1095.5 210,-1095.5 210,-1076.5 106,-1076.5"/>
<text text-anchor="middle" x="158" y="-1083.5" font-family="Helvetica,sans-Serif" font-size="10.00">IFPSDisplayControl</text>
</a>
</g>
</g>
<!-- Node1&#45;&gt;Node12 -->
<g id="edge11" class="edge"><title>Node1&#45;&gt;Node12</title>
<path fill="none" stroke="midnightblue" d="M27.2716,-687.672C28.6708,-759.985 37.1649,-1009.84 88,-1067 92.8717,-1072.48 99.1629,-1076.44 105.96,-1079.29"/>
<polygon fill="midnightblue" stroke="midnightblue" points="30.7708,-687.587 27.1026,-677.648 23.7718,-687.705 30.7708,-687.587"/>
</g>
<!-- Node13 -->
<g id="node13" class="node"><title>Node13</title>
<g id="a_node13"><a xlink:href="class_i_graphics_live_edit.html" target="_top" xlink:title="A control to enable live modification of control layout in an IGraphics context in debug builds This ...">
<polygon fill="white" stroke="black" points="111,-1038.5 111,-1057.5 205,-1057.5 205,-1038.5 111,-1038.5"/>
<text text-anchor="middle" x="158" y="-1045.5" font-family="Helvetica,sans-Serif" font-size="10.00">IGraphicsLiveEdit</text>
</a>
</g>
</g>
<!-- Node1&#45;&gt;Node13 -->
<g id="edge12" class="edge"><title>Node1&#45;&gt;Node13</title>
<path fill="none" stroke="midnightblue" d="M27.6316,-687.952C30.1913,-756.073 41.9784,-978.063 88,-1029 94.0807,-1035.73 102.304,-1040.17 110.954,-1043.07"/>
<polygon fill="midnightblue" stroke="midnightblue" points="31.1218,-687.609 27.2751,-677.737 24.1261,-687.853 31.1218,-687.609"/>
</g>
<!-- Node14 -->
<g id="node14" class="node"><title>Node14</title>
<g id="a_node14"><a xlink:href="class_i_knob_control_base.html" target="_top" xlink:title="A base class for knob/dial controls, to handle mouse action and ballistics. ">
<polygon fill="white" stroke="red" points="110,-1000.5 110,-1019.5 206,-1019.5 206,-1000.5 110,-1000.5"/>
<text text-anchor="middle" x="158" y="-1007.5" font-family="Helvetica,sans-Serif" font-size="10.00">IKnobControlBase</text>
</a>
</g>
</g>
<!-- Node1&#45;&gt;Node14 -->
<g id="edge13" class="edge"><title>Node1&#45;&gt;Node14</title>
<path fill="none" stroke="midnightblue" d="M28.0622,-687.869C31.8408,-751.103 46.6877,-946.151 88,-991 93.8927,-997.397 101.722,-1001.72 109.988,-1004.62"/>
<polygon fill="midnightblue" stroke="midnightblue" points="31.5439,-687.447 27.4816,-677.662 24.5552,-687.844 31.5439,-687.447"/>
</g>
<!-- Node24 -->
<g id="node24" class="node"><title>Node24</title>
<g id="a_node24"><a xlink:href="class_i_lambda_control.html" target="_top" xlink:title="A control that can be specialised with a lambda function, for quick experiments without making a cust...">
<polygon fill="white" stroke="black" points="115,-962.5 115,-981.5 201,-981.5 201,-962.5 115,-962.5"/>
<text text-anchor="middle" x="158" y="-969.5" font-family="Helvetica,sans-Serif" font-size="10.00">ILambdaControl</text>
</a>
</g>
</g>
<!-- Node1&#45;&gt;Node24 -->
<g id="edge23" class="edge"><title>Node1&#45;&gt;Node24</title>
<path fill="none" stroke="midnightblue" d="M28.6,-687.776C33.6897,-745.84 51.371,-914.188 88,-953 95.0783,-960.5 104.82,-965.134 114.754,-967.972"/>
<polygon fill="midnightblue" stroke="midnightblue" points="32.0786,-687.373 27.748,-677.704 25.1035,-687.964 32.0786,-687.373"/>
</g>
<!-- Node25 -->
<g id="node25" class="node"><title>Node25</title>
<g id="a_node25"><a xlink:href="class_i_panel_control.html" target="_top" xlink:title="A basic control to fill a rectangle with a color or gradient. ">
<polygon fill="white" stroke="black" points="120,-924.5 120,-943.5 196,-943.5 196,-924.5 120,-924.5"/>
<text text-anchor="middle" x="158" y="-931.5" font-family="Helvetica,sans-Serif" font-size="10.00">IPanelControl</text>
</a>
</g>
</g>
<!-- Node1&#45;&gt;Node25 -->
<g id="edge24" class="edge"><title>Node1&#45;&gt;Node25</title>
<path fill="none" stroke="midnightblue" d="M29.316,-687.862C35.8508,-740.571 56.0616,-882.201 88,-915 96.4082,-923.635 108.351,-928.454 119.942,-931.109"/>
<polygon fill="midnightblue" stroke="midnightblue" points="32.7716,-687.282 28.0992,-677.773 25.822,-688.121 32.7716,-687.282"/>
</g>
<!-- Node26 -->
<g id="node26" class="node"><title>Node26</title>
<g id="a_node26"><a xlink:href="class_i_popup_menu_control.html" target="_top" xlink:title="A base control for a pop&#45;up menu/drop&#45;down list that stays within the bounds of the IGraphics context...">
<polygon fill="white" stroke="black" points="106.5,-886.5 106.5,-905.5 209.5,-905.5 209.5,-886.5 106.5,-886.5"/>
<text text-anchor="middle" x="158" y="-893.5" font-family="Helvetica,sans-Serif" font-size="10.00">IPopupMenuControl</text>
</a>
</g>
</g>
<!-- Node1&#45;&gt;Node26 -->
<g id="edge25" class="edge"><title>Node1&#45;&gt;Node26</title>
<path fill="none" stroke="midnightblue" d="M26.7685,-687.587C27.3893,-728.726 34.8281,-824.634 88,-877 93.1345,-882.057 99.4843,-885.797 106.235,-888.559"/>
<polygon fill="midnightblue" stroke="midnightblue" points="30.2684,-687.508 26.7418,-677.517 23.2684,-687.526 30.2684,-687.508"/>
</g>
<!-- Node27 -->
<g id="node27" class="node"><title>Node27</title>
<g id="a_node27"><a xlink:href="class_i_slider_control_base.html" target="_top" xlink:title="A base class for slider/fader controls, to handle mouse action and ballistics. ">
<polygon fill="white" stroke="red" points="109,-848.5 109,-867.5 207,-867.5 207,-848.5 109,-848.5"/>
<text text-anchor="middle" x="158" y="-855.5" font-family="Helvetica,sans-Serif" font-size="10.00">ISliderControlBase</text>
</a>
</g>
</g>
<!-- Node1&#45;&gt;Node27 -->
<g id="edge26" class="edge"><title>Node1&#45;&gt;Node27</title>
<path fill="none" stroke="midnightblue" d="M28.3011,-687.889C31.7201,-723.484 44.0254,-798.163 88,-839 93.918,-844.496 101.279,-848.426 108.969,-851.23"/>
<polygon fill="midnightblue" stroke="midnightblue" points="31.7793,-687.479 27.4744,-677.798 24.8027,-688.051 31.7793,-687.479"/>
</g>
<!-- Node28 -->
<g id="node28" class="node"><title>Node28</title>
<g id="a_node28"><a xlink:href="class_i_s_v_g_control.html" target="_top" xlink:title="A basic control to draw an SVG image to the screen. ">
<polygon fill="white" stroke="black" points="122,-810.5 122,-829.5 194,-829.5 194,-810.5 122,-810.5"/>
<text text-anchor="middle" x="158" y="-817.5" font-family="Helvetica,sans-Serif" font-size="10.00">ISVGControl</text>
</a>
</g>
</g>
<!-- Node1&#45;&gt;Node28 -->
<g id="edge27" class="edge"><title>Node1&#45;&gt;Node28</title>
<path fill="none" stroke="midnightblue" d="M30.6227,-687.899C36.9874,-717.075 52.9782,-771.217 88,-801 97.4651,-809.049 110.064,-813.709 121.905,-816.4"/>
<polygon fill="midnightblue" stroke="midnightblue" points="33.9777,-686.829 28.575,-677.716 27.1151,-688.209 33.9777,-686.829"/>
</g>
<!-- Node29 -->
<g id="node29" class="node"><title>Node29</title>
<g id="a_node29"><a xlink:href="class_i_switch_control_base.html" target="_top" xlink:title="A base class for switch controls. ">
<polygon fill="white" stroke="red" points="106,-772.5 106,-791.5 210,-791.5 210,-772.5 106,-772.5"/>
<text text-anchor="middle" x="158" y="-779.5" font-family="Helvetica,sans-Serif" font-size="10.00">ISwitchControlBase</text>
</a>
</g>
</g>
<!-- Node1&#45;&gt;Node29 -->
<g id="edge28" class="edge"><title>Node1&#45;&gt;Node29</title>
<path fill="none" stroke="midnightblue" d="M34.3361,-687.204C43.5855,-708.845 61.5439,-743.534 88,-763 93.3042,-766.903 99.3695,-770.004 105.654,-772.468"/>
<polygon fill="midnightblue" stroke="midnightblue" points="37.5028,-685.7 30.496,-677.753 31.0176,-688.335 37.5028,-685.7"/>
</g>
<!-- Node30 -->
<g id="node30" class="node"><title>Node30</title>
<g id="a_node30"><a xlink:href="class_i_text_control.html" target="_top" xlink:title="A basic control to display some text. ">
<polygon fill="white" stroke="red" points="122.5,-734.5 122.5,-753.5 193.5,-753.5 193.5,-734.5 122.5,-734.5"/>
<text text-anchor="middle" x="158" y="-741.5" font-family="Helvetica,sans-Serif" font-size="10.00">ITextControl</text>
</a>
</g>
</g>
<!-- Node1&#45;&gt;Node30 -->
<g id="edge29" class="edge"><title>Node1&#45;&gt;Node30</title>
<path fill="none" stroke="midnightblue" d="M41.2629,-685.233C52.6729,-697.96 69.7381,-714.782 88,-725 98.5179,-730.885 110.972,-735.038 122.384,-737.927"/>
<polygon fill="midnightblue" stroke="midnightblue" points="43.8188,-682.838 34.6258,-677.571 38.5279,-687.421 43.8188,-682.838"/>
</g>
<!-- Node31 -->
<g id="node31" class="node"><title>Node31</title>
<g id="a_node31"><a xlink:href="class_i_text_entry_control.html" target="_top" xlink:title="A Text entry widget drawn by IGraphics. ">
<polygon fill="white" stroke="black" points="111,-696.5 111,-715.5 205,-715.5 205,-696.5 111,-696.5"/>
<text text-anchor="middle" x="158" y="-703.5" font-family="Helvetica,sans-Serif" font-size="10.00">ITextEntryControl</text>
</a>
</g>
</g>
<!-- Node1&#45;&gt;Node31 -->
<g id="edge30" class="edge"><title>Node1&#45;&gt;Node31</title>
<path fill="none" stroke="midnightblue" d="M61.3875,-678.93C70.056,-681.625 79.3554,-684.464 88,-687 98.8496,-690.183 110.705,-693.503 121.479,-696.462"/>
<polygon fill="midnightblue" stroke="midnightblue" points="62.1672,-675.507 51.5782,-675.86 60.0761,-682.187 62.1672,-675.507"/>
</g>
<!-- Node32 -->
<g id="node32" class="node"><title>Node32</title>
<g id="a_node32"><a xlink:href="class_i_v_keyboard_control.html" target="_top" xlink:title="Vectorial keyboard control. ">
<polygon fill="white" stroke="black" points="108.5,-658.5 108.5,-677.5 207.5,-677.5 207.5,-658.5 108.5,-658.5"/>
<text text-anchor="middle" x="158" y="-665.5" font-family="Helvetica,sans-Serif" font-size="10.00">IVKeyboardControl</text>
</a>
</g>
</g>
<!-- Node1&#45;&gt;Node32 -->
<g id="edge31" class="edge"><title>Node1&#45;&gt;Node32</title>
<path fill="none" stroke="midnightblue" d="M62.1001,-668C76.3286,-668 93.0012,-668 108.368,-668"/>
<polygon fill="midnightblue" stroke="midnightblue" points="61.758,-664.5 51.758,-668 61.758,-671.5 61.758,-664.5"/>
</g>
<!-- Node33 -->
<g id="node33" class="node"><title>Node33</title>
<g id="a_node33"><a xlink:href="class_i_v_scope_control.html" target="_top" xlink:title="Vectorial multichannel capable oscilloscope control. ">
<polygon fill="white" stroke="black" points="88,-609 88,-639 228,-639 228,-609 88,-609"/>
<text text-anchor="start" x="96" y="-627" font-family="Helvetica,sans-Serif" font-size="10.00">IVScopeControl&lt; MAXNC,</text>
<text text-anchor="middle" x="158" y="-616" font-family="Helvetica,sans-Serif" font-size="10.00"> MAXBUF, QUEUE_SIZE &gt;</text>
</a>
</g>
</g>
<!-- Node1&#45;&gt;Node33 -->
<g id="edge32" class="edge"><title>Node1&#45;&gt;Node33</title>
<path fill="none" stroke="midnightblue" d="M61.5556,-656.304C77.2128,-651.005 95.9145,-644.675 112.597,-639.029"/>
<polygon fill="midnightblue" stroke="midnightblue" points="60.1081,-653.099 51.758,-659.62 62.3523,-659.73 60.1081,-653.099"/>
</g>
<!-- Node34 -->
<g id="node34" class="node"><title>Node34</title>
<g id="a_node34"><a xlink:href="class_i_v_track_control_base.html" target="_top" xlink:title="A base class for mult&#45;strip/track controls, such as multi&#45;sliders, meters. ">
<polygon fill="white" stroke="red" points="105.5,-570.5 105.5,-589.5 210.5,-589.5 210.5,-570.5 105.5,-570.5"/>
<text text-anchor="middle" x="158" y="-577.5" font-family="Helvetica,sans-Serif" font-size="10.00">IVTrackControlBase</text>
</a>
</g>
</g>
<!-- Node1&#45;&gt;Node34 -->
<g id="edge33" class="edge"><title>Node1&#45;&gt;Node34</title>
<path fill="none" stroke="midnightblue" d="M38.8849,-649.842C49.8766,-634.431 67.5679,-612.835 88,-600 94.8649,-595.688 102.692,-592.276 110.55,-589.585"/>
<polygon fill="midnightblue" stroke="midnightblue" points="35.9973,-647.864 33.2173,-658.088 41.766,-651.829 35.9973,-647.864"/>
</g>
<!-- Node35 -->
<g id="node35" class="node"><title>Node35</title>
<g id="a_node35"><a xlink:href="class_i_v_x_y_pad_control.html" target="_top" xlink:title="IVXYPadControl">
<polygon fill="white" stroke="black" points="113.5,-532.5 113.5,-551.5 202.5,-551.5 202.5,-532.5 113.5,-532.5"/>
<text text-anchor="middle" x="158" y="-539.5" font-family="Helvetica,sans-Serif" font-size="10.00">IVXYPadControl</text>
</a>
</g>
</g>
<!-- Node1&#45;&gt;Node35 -->
<g id="edge34" class="edge"><title>Node1&#45;&gt;Node35</title>
<path fill="none" stroke="midnightblue" d="M32.9299,-648.529C41.29,-624.382 58.864,-583.644 88,-561 95.3579,-555.281 104.327,-551.283 113.331,-548.487"/>
<polygon fill="midnightblue" stroke="midnightblue" points="29.506,-647.74 29.7287,-658.332 36.1602,-649.913 29.506,-647.74"/>
</g>
<!-- Node36 -->
<g id="node36" class="node"><title>Node36</title>
<g id="a_node36"><a xlink:href="class_test_animation_control.html" target="_top" xlink:title="Control to test animation. ">
<polygon fill="white" stroke="black" points="102.5,-494.5 102.5,-513.5 213.5,-513.5 213.5,-494.5 102.5,-494.5"/>
<text text-anchor="middle" x="158" y="-501.5" font-family="Helvetica,sans-Serif" font-size="10.00">TestAnimationControl</text>
</a>
</g>
</g>
<!-- Node1&#45;&gt;Node36 -->
<g id="edge35" class="edge"><title>Node1&#45;&gt;Node36</title>
<path fill="none" stroke="midnightblue" d="M29.7695,-648.095C35.19,-616.795 50.1683,-556.224 88,-523 92.3879,-519.147 97.4904,-516.068 102.897,-513.609"/>
<polygon fill="midnightblue" stroke="midnightblue" points="26.2769,-647.774 28.1803,-658.197 33.1919,-648.862 26.2769,-647.774"/>
</g>
<!-- Node37 -->
<g id="node37" class="node"><title>Node37</title>
<g id="a_node37"><a xlink:href="class_test_color_control.html" target="_top" xlink:title="Control to colors. ">
<polygon fill="white" stroke="black" points="112.5,-456.5 112.5,-475.5 203.5,-475.5 203.5,-456.5 112.5,-456.5"/>
<text text-anchor="middle" x="158" y="-463.5" font-family="Helvetica,sans-Serif" font-size="10.00">TestColorControl</text>
</a>
</g>
</g>
<!-- Node1&#45;&gt;Node37 -->
<g id="edge36" class="edge"><title>Node1&#45;&gt;Node37</title>
<path fill="none" stroke="midnightblue" d="M27.7424,-648.305C30.2423,-610.929 41.0929,-529.483 88,-485 94.7618,-478.588 103.484,-474.302 112.437,-471.447"/>
<polygon fill="midnightblue" stroke="midnightblue" points="24.2416,-648.228 27.204,-658.4 31.2317,-648.6 24.2416,-648.228"/>
</g>
<!-- Node38 -->
<g id="node38" class="node"><title>Node38</title>
<g id="a_node38"><a xlink:href="class_test_cursor_control.html" target="_top" xlink:title="Control to test changing the platform cursor. ">
<polygon fill="white" stroke="black" points="109.5,-418.5 109.5,-437.5 206.5,-437.5 206.5,-418.5 109.5,-418.5"/>
<text text-anchor="middle" x="158" y="-425.5" font-family="Helvetica,sans-Serif" font-size="10.00">TestCursorControl</text>
</a>
</g>
</g>
<!-- Node1&#45;&gt;Node38 -->
<g id="edge37" class="edge"><title>Node1&#45;&gt;Node38</title>
<path fill="none" stroke="midnightblue" d="M26.3925,-648.192C26.2043,-605.244 32.038,-502.928 88,-447 93.8883,-441.115 101.421,-437.009 109.333,-434.154"/>
<polygon fill="midnightblue" stroke="midnightblue" points="22.8968,-648.486 26.5622,-658.427 29.8959,-648.37 22.8968,-648.486"/>
</g>
<!-- Node39 -->
<g id="node39" class="node"><title>Node39</title>
<g id="a_node39"><a xlink:href="class_test_draw_context_control.html" target="_top" xlink:title="Control to test obtaining a drawing API (NanoVG, LICE, Cairo, AGG etc) context and using that API wit...">
<polygon fill="white" stroke="black" points="95.5,-380.5 95.5,-399.5 220.5,-399.5 220.5,-380.5 95.5,-380.5"/>
<text text-anchor="middle" x="158" y="-387.5" font-family="Helvetica,sans-Serif" font-size="10.00">TestDrawContextControl</text>
</a>
</g>
</g>
<!-- Node1&#45;&gt;Node39 -->
<g id="edge38" class="edge"><title>Node1&#45;&gt;Node39</title>
<path fill="none" stroke="midnightblue" d="M29.0564,-648.265C35.1086,-593.902 54.5638,-443.711 88,-409 91.7066,-405.152 96.1148,-402.061 100.884,-399.581"/>
<polygon fill="midnightblue" stroke="midnightblue" points="25.5629,-648.016 27.9681,-658.335 32.5224,-648.769 25.5629,-648.016"/>
</g>
<!-- Node40 -->
<g id="node40" class="node"><title>Node40</title>
<g id="a_node40"><a xlink:href="class_test_drop_shadow_control.html" target="_top" xlink:title="Control to test layer drop shadows. ">
<polygon fill="white" stroke="black" points="96,-342.5 96,-361.5 220,-361.5 220,-342.5 96,-342.5"/>
<text text-anchor="middle" x="158" y="-349.5" font-family="Helvetica,sans-Serif" font-size="10.00">TestDropShadowControl</text>
</a>
</g>
</g>
<!-- Node1&#45;&gt;Node40 -->
<g id="edge39" class="edge"><title>Node1&#45;&gt;Node40</title>
<path fill="none" stroke="midnightblue" d="M28.4176,-648.176C33.0844,-588.428 49.899,-411.708 88,-371 91.566,-367.19 95.8192,-364.119 100.438,-361.646"/>
<polygon fill="midnightblue" stroke="midnightblue" points="24.9234,-647.968 27.6642,-658.202 31.9037,-648.493 24.9234,-647.968"/>
</g>
<!-- Node41 -->
<g id="node41" class="node"><title>Node41</title>
<g id="a_node41"><a xlink:href="class_test_font_control.html" target="_top" xlink:title="Control to test drawing fonts. ">
<polygon fill="white" stroke="black" points="114.5,-304.5 114.5,-323.5 201.5,-323.5 201.5,-304.5 114.5,-304.5"/>
<text text-anchor="middle" x="158" y="-311.5" font-family="Helvetica,sans-Serif" font-size="10.00">TestFontControl</text>
</a>
</g>
</g>
<!-- Node1&#45;&gt;Node41 -->
<g id="edge40" class="edge"><title>Node1&#45;&gt;Node41</title>
<path fill="none" stroke="midnightblue" d="M27.9095,-648.234C31.282,-583.572 45.1743,-379.798 88,-333 94.8783,-325.484 104.43,-320.833 114.236,-317.984"/>
<polygon fill="midnightblue" stroke="midnightblue" points="24.4094,-648.153 27.4118,-658.313 31.4008,-648.498 24.4094,-648.153"/>
</g>
<!-- Node42 -->
<g id="node42" class="node"><title>Node42</title>
<g id="a_node42"><a xlink:href="class_test_g_l_control.html" target="_top" xlink:title="TestGLControl">
<polygon fill="white" stroke="black" points="118,-266.5 118,-285.5 198,-285.5 198,-266.5 118,-266.5"/>
<text text-anchor="middle" x="158" y="-273.5" font-family="Helvetica,sans-Serif" font-size="10.00">TestGLControl</text>
</a>
</g>
</g>
<!-- Node1&#45;&gt;Node42 -->
<g id="edge41" class="edge"><title>Node1&#45;&gt;Node42</title>
<path fill="none" stroke="midnightblue" d="M27.5047,-648.281C29.678,-578.98 40.4279,-347.934 88,-295 95.6409,-286.498 106.701,-281.653 117.737,-278.934"/>
<polygon fill="midnightblue" stroke="midnightblue" points="24.0058,-648.196 27.2166,-658.293 31.0029,-648.397 24.0058,-648.196"/>
</g>
<!-- Node43 -->
<g id="node43" class="node"><title>Node43</title>
<g id="a_node43"><a xlink:href="class_test_image_control.html" target="_top" xlink:title="Control to test drawing bitmaps. ">
<polygon fill="white" stroke="black" points="110.5,-228.5 110.5,-247.5 205.5,-247.5 205.5,-228.5 110.5,-228.5"/>
<text text-anchor="middle" x="158" y="-235.5" font-family="Helvetica,sans-Serif" font-size="10.00">TestImageControl</text>
</a>
</g>
</g>
<!-- Node1&#45;&gt;Node43 -->
<g id="edge42" class="edge"><title>Node1&#45;&gt;Node43</title>
<path fill="none" stroke="midnightblue" d="M27.1759,-648.224C28.2362,-574.391 35.6855,-316.082 88,-257 93.9305,-250.302 101.983,-245.869 110.495,-242.956"/>
<polygon fill="midnightblue" stroke="midnightblue" points="23.6737,-648.39 27.0547,-658.431 30.6732,-648.474 23.6737,-648.39"/>
</g>
<!-- Node44 -->
<g id="node44" class="node"><title>Node44</title>
<g id="a_node44"><a xlink:href="class_test_keyboard_control.html" target="_top" xlink:title="Control to test keyboard input. ">
<polygon fill="white" stroke="black" points="103.5,-190.5 103.5,-209.5 212.5,-209.5 212.5,-190.5 103.5,-190.5"/>
<text text-anchor="middle" x="158" y="-197.5" font-family="Helvetica,sans-Serif" font-size="10.00">TestKeyboardControl</text>
</a>
</g>
</g>
<!-- Node1&#45;&gt;Node44 -->
<g id="edge43" class="edge"><title>Node1&#45;&gt;Node44</title>
<path fill="none" stroke="midnightblue" d="M26.9,-647.935C26.9211,-569.427 30.9834,-284.197 88,-219 92.2533,-214.136 97.6256,-210.465 103.487,-207.701"/>
<polygon fill="midnightblue" stroke="midnightblue" points="23.4008,-648.341 26.9221,-658.333 30.4007,-648.326 23.4008,-648.341"/>
</g>
<!-- Node45 -->
<g id="node45" class="node"><title>Node45</title>
<g id="a_node45"><a xlink:href="class_test_m_p_s_control.html" target="_top" xlink:title="TestMPSControl">
<polygon fill="white" stroke="black" points="113.5,-152.5 113.5,-171.5 202.5,-171.5 202.5,-152.5 113.5,-152.5"/>
<text text-anchor="middle" x="158" y="-159.5" font-family="Helvetica,sans-Serif" font-size="10.00">TestMPSControl</text>
</a>
</g>
</g>
<!-- Node1&#45;&gt;Node45 -->
<g id="edge44" class="edge"><title>Node1&#45;&gt;Node45</title>
<path fill="none" stroke="midnightblue" d="M26.6617,-647.852C25.6888,-565.103 26.2192,-252.392 88,-181 94.5045,-173.484 103.682,-168.81 113.227,-165.935"/>
<polygon fill="midnightblue" stroke="midnightblue" points="23.1688,-648.386 26.8091,-658.336 30.1681,-648.287 23.1688,-648.386"/>
</g>
<!-- Node46 -->
<g id="node46" class="node"><title>Node46</title>
<g id="a_node46"><a xlink:href="class_test_shadow_gradient_control.html" target="_top" xlink:title="Control to test drawing shadows with gradients. ">
<polygon fill="white" stroke="black" points="88,-114.5 88,-133.5 228,-133.5 228,-114.5 88,-114.5"/>
<text text-anchor="middle" x="158" y="-121.5" font-family="Helvetica,sans-Serif" font-size="10.00">TestShadowGradientControl</text>
</a>
</g>
</g>
<!-- Node1&#45;&gt;Node46 -->
<g id="edge45" class="edge"><title>Node1&#45;&gt;Node46</title>
<path fill="none" stroke="midnightblue" d="M27.9962,-648.35C32.7641,-557.644 54.4174,-182.159 88,-143 91.3163,-139.133 95.3402,-136.017 99.76,-133.511"/>
<polygon fill="midnightblue" stroke="midnightblue" points="24.4989,-648.209 27.4775,-658.377 31.4895,-648.571 24.4989,-648.209"/>
</g>
<!-- Node47 -->
<g id="node47" class="node"><title>Node47</title>
<g id="a_node47"><a xlink:href="class_test_size_control.html" target="_top" xlink:title="Control to display the size of a region. ">
<polygon fill="white" stroke="black" points="114.5,-76.5 114.5,-95.5 201.5,-95.5 201.5,-76.5 114.5,-76.5"/>
<text text-anchor="middle" x="158" y="-83.5" font-family="Helvetica,sans-Serif" font-size="10.00">TestSizeControl</text>
</a>
</g>
</g>
<!-- Node1&#45;&gt;Node47 -->
<g id="edge46" class="edge"><title>Node1&#45;&gt;Node47</title>
<path fill="none" stroke="midnightblue" d="M27.8438,-648.134C32.0541,-553.048 52.0312,-147.272 88,-105 94.6831,-97.1457 104.286,-92.3872 114.212,-89.5427"/>
<polygon fill="midnightblue" stroke="midnightblue" points="24.3463,-648.001 27.4085,-658.144 31.3397,-648.306 24.3463,-648.001"/>
</g>
<!-- Node48 -->
<g id="node48" class="node"><title>Node48</title>
<g id="a_node48"><a xlink:href="class_test_s_v_g_control.html" target="_top" xlink:title="Control to test drawing SVGs. ">
<polygon fill="white" stroke="black" points="113.5,-38.5 113.5,-57.5 202.5,-57.5 202.5,-38.5 113.5,-38.5"/>
<text text-anchor="middle" x="158" y="-45.5" font-family="Helvetica,sans-Serif" font-size="10.00">TestSVGControl</text>
</a>
</g>
</g>
<!-- Node1&#45;&gt;Node48 -->
<g id="edge47" class="edge"><title>Node1&#45;&gt;Node48</title>
<path fill="none" stroke="midnightblue" d="M27.6915,-648.375C31.332,-549.893 49.5821,-112.461 88,-67 94.4961,-59.3129 103.789,-54.5882 113.459,-51.7208"/>
<polygon fill="midnightblue" stroke="midnightblue" points="24.1916,-648.314 27.3275,-658.434 31.187,-648.567 24.1916,-648.314"/>
</g>
<!-- Node49 -->
<g id="node49" class="node"><title>Node49</title>
<g id="a_node49"><a xlink:href="class_test_text_control.html" target="_top" xlink:title="Control to test drawing text. ">
<polygon fill="white" stroke="black" points="114.5,-0.5 114.5,-19.5 201.5,-19.5 201.5,-0.5 114.5,-0.5"/>
<text text-anchor="middle" x="158" y="-7.5" font-family="Helvetica,sans-Serif" font-size="10.00">TestTextControl</text>
</a>
</g>
</g>
<!-- Node1&#45;&gt;Node49 -->
<g id="edge48" class="edge"><title>Node1&#45;&gt;Node49</title>
<path fill="none" stroke="midnightblue" d="M27.5747,-648.112C30.7168,-545.367 47.1941,-77.5811 88,-29 94.6329,-21.1033 104.218,-16.3299 114.144,-13.4845"/>
<polygon fill="midnightblue" stroke="midnightblue" points="24.07,-648.22 27.2702,-658.32 31.0669,-648.429 24.07,-648.22"/>
</g>
<!-- Node4 -->
<g id="node4" class="node"><title>Node4</title>
<g id="a_node4"><a xlink:href="class_i_b_switch_control.html" target="_top" xlink:title="A bitmap switch control. ">
<polygon fill="white" stroke="black" points="277,-1266.5 277,-1285.5 365,-1285.5 365,-1266.5 277,-1266.5"/>
<text text-anchor="middle" x="321" y="-1273.5" font-family="Helvetica,sans-Serif" font-size="10.00">IBSwitchControl</text>
</a>
</g>
</g>
<!-- Node3&#45;&gt;Node4 -->
<g id="edge3" class="edge"><title>Node3&#45;&gt;Node4</title>
<path fill="none" stroke="midnightblue" d="M209.235,-1276C230.94,-1276 256.081,-1276 276.919,-1276"/>
<polygon fill="midnightblue" stroke="midnightblue" points="209.212,-1272.5 199.212,-1276 209.212,-1279.5 209.212,-1272.5"/>
</g>
<!-- Node6 -->
<g id="node6" class="node"><title>Node6</title>
<g id="a_node6"><a xlink:href="class_i_b_button_control.html" target="_top" xlink:title="A bitmap button/momentary switch control. ">
<polygon fill="white" stroke="black" points="278,-1228.5 278,-1247.5 364,-1247.5 364,-1228.5 278,-1228.5"/>
<text text-anchor="middle" x="321" y="-1235.5" font-family="Helvetica,sans-Serif" font-size="10.00">IBButtonControl</text>
</a>
</g>
</g>
<!-- Node5&#45;&gt;Node6 -->
<g id="edge5" class="edge"><title>Node5&#45;&gt;Node6</title>
<path fill="none" stroke="midnightblue" d="M219.093,-1238C238.631,-1238 259.887,-1238 277.829,-1238"/>
<polygon fill="midnightblue" stroke="midnightblue" points="219.059,-1234.5 209.059,-1238 219.059,-1241.5 219.059,-1234.5"/>
</g>
<!-- Node7 -->
<g id="node7" class="node"><title>Node7</title>
<g id="a_node7"><a xlink:href="class_i_v_button_control.html" target="_top" xlink:title="A vector button/momentary switch control. ">
<polygon fill="white" stroke="black" points="278,-1190.5 278,-1209.5 364,-1209.5 364,-1190.5 278,-1190.5"/>
<text text-anchor="middle" x="321" y="-1197.5" font-family="Helvetica,sans-Serif" font-size="10.00">IVButtonControl</text>
</a>
</g>
</g>
<!-- Node5&#45;&gt;Node7 -->
<g id="edge6" class="edge"><title>Node5&#45;&gt;Node7</title>
<path fill="none" stroke="midnightblue" d="M209.402,-1226.1C232.032,-1220.76 258.37,-1214.55 279.665,-1209.52"/>
<polygon fill="midnightblue" stroke="midnightblue" points="208.556,-1222.71 199.627,-1228.41 210.164,-1229.52 208.556,-1222.71"/>
</g>
<!-- Node11 -->
<g id="node11" class="node"><title>Node11</title>
<g id="a_node11"><a xlink:href="class_test_dir_browse_control.html" target="_top" xlink:title="Control to test IDirBrowseControlBase. ">
<polygon fill="white" stroke="black" points="264.5,-1152.5 264.5,-1171.5 377.5,-1171.5 377.5,-1152.5 264.5,-1152.5"/>
<text text-anchor="middle" x="321" y="-1159.5" font-family="Helvetica,sans-Serif" font-size="10.00">TestDirBrowseControl</text>
</a>
</g>
</g>
<!-- Node10&#45;&gt;Node11 -->
<g id="edge10" class="edge"><title>Node10&#45;&gt;Node11</title>
<path fill="none" stroke="midnightblue" d="M209.402,-1135.9C232.032,-1141.24 258.37,-1147.45 279.665,-1152.48"/>
<polygon fill="midnightblue" stroke="midnightblue" points="210.164,-1132.48 199.627,-1133.59 208.556,-1139.29 210.164,-1132.48"/>
</g>
<!-- Node15 -->
<g id="node15" class="node"><title>Node15</title>
<g id="a_node15"><a xlink:href="class_i_b_knob_control.html" target="_top" xlink:title="A bitmap knob/dial control that draws a frame from a stacked bitmap. ">
<polygon fill="white" stroke="red" points="281,-1114.5 281,-1133.5 361,-1133.5 361,-1114.5 281,-1114.5"/>
<text text-anchor="middle" x="321" y="-1121.5" font-family="Helvetica,sans-Serif" font-size="10.00">IBKnobControl</text>
</a>
</g>
</g>
<!-- Node14&#45;&gt;Node15 -->
<g id="edge14" class="edge"><title>Node14&#45;&gt;Node15</title>
<path fill="none" stroke="midnightblue" d="M215.621,-1021.06C220.068,-1023.25 224.271,-1025.87 228,-1029 256.621,-1053.04 236.093,-1080.14 264,-1105 268.829,-1109.3 274.673,-1112.64 280.74,-1115.22"/>
<polygon fill="midnightblue" stroke="midnightblue" points="216.806,-1017.76 206.229,-1017.15 214.112,-1024.23 216.806,-1017.76"/>
</g>
<!-- Node16 -->
<g id="node16" class="node"><title>Node16</title>
<g id="a_node16"><a xlink:href="class_i_s_v_g_knob.html" target="_top" xlink:title="A vector knob/dial control which rotates an SVG image. ">
<polygon fill="white" stroke="black" points="289.5,-1076.5 289.5,-1095.5 352.5,-1095.5 352.5,-1076.5 289.5,-1076.5"/>
<text text-anchor="middle" x="321" y="-1083.5" font-family="Helvetica,sans-Serif" font-size="10.00">ISVGKnob</text>
</a>
</g>
</g>
<!-- Node14&#45;&gt;Node16 -->
<g id="edge15" class="edge"><title>Node14&#45;&gt;Node16</title>
<path fill="none" stroke="midnightblue" d="M215.643,-1022.82C219.947,-1024.62 224.12,-1026.67 228,-1029 247.947,-1040.97 244.411,-1054.45 264,-1067 271.694,-1071.93 280.806,-1075.73 289.422,-1078.59"/>
<polygon fill="midnightblue" stroke="midnightblue" points="216.669,-1019.46 206.076,-1019.25 214.221,-1026.02 216.669,-1019.46"/>
</g>
<!-- Node17 -->
<g id="node17" class="node"><title>Node17</title>
<g id="a_node17"><a xlink:href="class_i_v_knob_control.html" target="_top" xlink:title="A vector knob control drawn using graphics primitves. ">
<polygon fill="white" stroke="black" points="281,-1038.5 281,-1057.5 361,-1057.5 361,-1038.5 281,-1038.5"/>
<text text-anchor="middle" x="321" y="-1045.5" font-family="Helvetica,sans-Serif" font-size="10.00">IVKnobControl</text>
</a>
</g>
</g>
<!-- Node14&#45;&gt;Node17 -->
<g id="edge16" class="edge"><title>Node14&#45;&gt;Node17</title>
<path fill="none" stroke="midnightblue" d="M209.555,-1021.93C232.546,-1027.36 259.338,-1033.68 280.776,-1038.74"/>
<polygon fill="midnightblue" stroke="midnightblue" points="210.164,-1018.48 199.627,-1019.59 208.556,-1025.29 210.164,-1018.48"/>
</g>
<!-- Node18 -->
<g id="node18" class="node"><title>Node18</title>
<g id="a_node18"><a xlink:href="class_test_arc_control.html" target="_top" xlink:title="Control to test drawing arcs. ">
<polygon fill="white" stroke="black" points="279.5,-1000.5 279.5,-1019.5 362.5,-1019.5 362.5,-1000.5 279.5,-1000.5"/>
<text text-anchor="middle" x="321" y="-1007.5" font-family="Helvetica,sans-Serif" font-size="10.00">TestArcControl</text>
</a>
</g>
</g>
<!-- Node14&#45;&gt;Node18 -->
<g id="edge17" class="edge"><title>Node14&#45;&gt;Node18</title>
<path fill="none" stroke="midnightblue" d="M216.071,-1010C237.022,-1010 260.292,-1010 279.492,-1010"/>
<polygon fill="midnightblue" stroke="midnightblue" points="216.001,-1006.5 206.001,-1010 216.001,-1013.5 216.001,-1006.5"/>
</g>
<!-- Node19 -->
<g id="node19" class="node"><title>Node19</title>
<g id="a_node19"><a xlink:href="class_test_blend_control.html" target="_top" xlink:title="Control to test blend methods. ">
<polygon fill="white" stroke="black" points="275,-962.5 275,-981.5 367,-981.5 367,-962.5 275,-962.5"/>
<text text-anchor="middle" x="321" y="-969.5" font-family="Helvetica,sans-Serif" font-size="10.00">TestBlendControl</text>
</a>
</g>
</g>
<!-- Node14&#45;&gt;Node19 -->
<g id="edge18" class="edge"><title>Node14&#45;&gt;Node19</title>
<path fill="none" stroke="midnightblue" d="M209.402,-998.104C232.032,-992.763 258.37,-986.546 279.665,-981.52"/>
<polygon fill="midnightblue" stroke="midnightblue" points="208.556,-994.707 199.627,-1000.41 210.164,-1001.52 208.556,-994.707"/>
</g>
<!-- Node20 -->
<g id="node20" class="node"><title>Node20</title>
<g id="a_node20"><a xlink:href="class_test_gradient_control.html" target="_top" xlink:title="Control to test drawing gradients with path based drawing backends. ">
<polygon fill="white" stroke="black" points="269,-924.5 269,-943.5 373,-943.5 373,-924.5 269,-924.5"/>
<text text-anchor="middle" x="321" y="-931.5" font-family="Helvetica,sans-Serif" font-size="10.00">TestGradientControl</text>
</a>
</g>
</g>
<!-- Node14&#45;&gt;Node20 -->
<g id="edge19" class="edge"><title>Node14&#45;&gt;Node20</title>
<path fill="none" stroke="midnightblue" d="M215.643,-997.184C219.947,-995.38 224.12,-993.329 228,-991 247.947,-979.028 244.411,-965.55 264,-953 269.878,-949.234 276.585,-946.128 283.265,-943.598"/>
<polygon fill="midnightblue" stroke="midnightblue" points="214.221,-993.979 206.076,-1000.75 216.669,-1000.54 214.221,-993.979"/>
</g>
<!-- Node21 -->
<g id="node21" class="node"><title>Node21</title>
<g id="a_node21"><a xlink:href="class_test_layer_control.html" target="_top" xlink:title="Control to test IGraphics layers. ">
<polygon fill="white" stroke="black" points="275,-886.5 275,-905.5 367,-905.5 367,-886.5 275,-886.5"/>
<text text-anchor="middle" x="321" y="-893.5" font-family="Helvetica,sans-Serif" font-size="10.00">TestLayerControl</text>
</a>
</g>
</g>
<!-- Node14&#45;&gt;Node21 -->
<g id="edge20" class="edge"><title>Node14&#45;&gt;Node21</title>
<path fill="none" stroke="midnightblue" d="M215.621,-998.938C220.068,-996.749 224.271,-994.131 228,-991 256.621,-966.963 236.093,-939.862 264,-915 268.369,-911.107 273.569,-908.006 279.013,-905.537"/>
<polygon fill="midnightblue" stroke="midnightblue" points="214.112,-995.775 206.229,-1002.85 216.806,-1002.24 214.112,-995.775"/>
</g>
<!-- Node22 -->
<g id="node22" class="node"><title>Node22</title>
<g id="a_node22"><a xlink:href="class_test_multi_path_control.html" target="_top" xlink:title="Control to test drawing paths in path&#45;based drawing backends. ">
<polygon fill="white" stroke="black" points="266.5,-848.5 266.5,-867.5 375.5,-867.5 375.5,-848.5 266.5,-848.5"/>
<text text-anchor="middle" x="321" y="-855.5" font-family="Helvetica,sans-Serif" font-size="10.00">TestMultiPathControl</text>
</a>
</g>
</g>
<!-- Node14&#45;&gt;Node22 -->
<g id="edge21" class="edge"><title>Node14&#45;&gt;Node22</title>
<path fill="none" stroke="midnightblue" d="M215.348,-999.861C219.977,-997.486 224.292,-994.572 228,-991 266.263,-954.134 226.83,-914.967 264,-877 267.807,-873.112 272.437,-870.019 277.388,-867.559"/>
<polygon fill="midnightblue" stroke="midnightblue" points="213.959,-996.648 206.137,-1003.79 216.708,-1003.09 213.959,-996.648"/>
</g>
<!-- Node23 -->
<g id="node23" class="node"><title>Node23</title>
<g id="a_node23"><a xlink:href="class_test_poly_control.html" target="_top" xlink:title="Control to test drawing polygons. ">
<polygon fill="white" stroke="black" points="277.5,-810.5 277.5,-829.5 364.5,-829.5 364.5,-810.5 277.5,-810.5"/>
<text text-anchor="middle" x="321" y="-817.5" font-family="Helvetica,sans-Serif" font-size="10.00">TestPolyControl</text>
</a>
</g>
</g>
<!-- Node14&#45;&gt;Node23 -->
<g id="edge22" class="edge"><title>Node14&#45;&gt;Node23</title>
<path fill="none" stroke="midnightblue" d="M215.427,-1000.25C220.076,-997.798 224.373,-994.76 228,-991 276.195,-941.03 217.284,-890.355 264,-839 267.731,-834.899 272.379,-831.683 277.392,-829.16"/>
<polygon fill="midnightblue" stroke="midnightblue" points="213.921,-997.087 206.137,-1004.27 216.704,-1003.51 213.921,-997.087"/>
</g>
</g>
</svg>
        <g id="navigator" transform="translate(0 0)" fill="#404254">
                <rect fill="#f2f5e9" fill-opacity="0.5" stroke="#606060" stroke-width=".5" x="0" y="0" width="60" height="60"/>
                <use id="zoomplus" xlink:href="#zoomPlus" x="17" y="9" onmousedown="handleZoom(evt,'in')"/>
                <use id="zoomminus" xlink:href="#zoomMin" x="42" y="9" onmousedown="handleZoom(evt,'out')"/>
                <use id="reset" xlink:href="#resetDef" x="30" y="36" onmousedown="handleReset()"/>
                <g id="arrowUp" xlink:href="#dirArrow" transform="translate(30 24)" onmousedown="handlePan(0,-1)">
                  <use xlink:href="#rim" fill="#404040">
                        <set attributeName="fill" to="#808080" begin="arrowUp.mouseover" end="arrowUp.mouseout"/>
                  </use>
                  <path fill="none" stroke="white" stroke-width="1.5" d="M0,-3.0v7 M-2.5,-0.5L0,-3.0L2.5,-0.5"/>
                </g>
                <g id="arrowRight" xlink:href="#dirArrow" transform="rotate(90) translate(36 -43)" onmousedown="handlePan(1,0)">
                  <use xlink:href="#rim" fill="#404040">
                        <set attributeName="fill" to="#808080" begin="arrowRight.mouseover" end="arrowRight.mouseout"/>
                  </use>
                  <path fill="none" stroke="white" stroke-width="1.5" d="M0,-3.0v7 M-2.5,-0.5L0,-3.0L2.5,-0.5"/>
                </g>
                <g id="arrowDown" xlink:href="#dirArrow" transform="rotate(180) translate(-30 -48)" onmousedown="handlePan(0,1)">
                  <use xlink:href="#rim" fill="#404040">
                        <set attributeName="fill" to="#808080" begin="arrowDown.mouseover" end="arrowDown.mouseout"/>
                  </use>
                  <path fill="none" stroke="white" stroke-width="1.5" d="M0,-3.0v7 M-2.5,-0.5L0,-3.0L2.5,-0.5"/>
                </g>
                <g id="arrowLeft" xlink:href="#dirArrow" transform="rotate(270) translate(-36 17)" onmousedown="handlePan(-1,0)">
                  <use xlink:href="#rim" fill="#404040">
                        <set attributeName="fill" to="#808080" begin="arrowLeft.mouseover" end="arrowLeft.mouseout"/>
                  </use>
                  <path fill="none" stroke="white" stroke-width="1.5" d="M0,-3.0v7 M-2.5,-0.5L0,-3.0L2.5,-0.5"/>
                </g>
        </g>
        <svg viewBox="0 0 15 15" width="100%" height="30px" preserveAspectRatio="xMaxYMin meet">
         <g id="arrow_out" transform="scale(0.3 0.3)">
          <a xlink:href="class_i_control__inherit__graph_org.svg" target="_base">
           <rect id="button" ry="5" rx="5" y="6" x="6" height="38" width="38"
                fill="#f2f5e9" fill-opacity="0.5" stroke="#606060" stroke-width="1.0"/>
           <path id="arrow"
             d="M 11.500037,31.436501 C 11.940474,20.09759 22.043105,11.32322 32.158766,21.979434 L 37.068811,17.246167 C 37.068811,17.246167 37.088388,32 37.088388,32 L 22.160133,31.978069 C 22.160133,31.978069 26.997745,27.140456 26.997745,27.140456 C 18.528582,18.264221 13.291696,25.230495 11.500037,31.436501 z"
             style="fill:#404040;"/>
          </a>
         </g>
        </svg>
</svg>
