<?xml version="1.0" encoding="UTF-8" standalone="no"?>
<!DOCTYPE svg PUBLIC "-//W3C//DTD SVG 1.1//EN"
 "http://www.w3.org/Graphics/SVG/1.1/DTD/svg11.dtd">
<!-- Generated by graphviz version 2.36.0 (20140111.2315)
 -->
<!-- Title: IPlugVST3Controller Pages: 1 -->
<svg width="435pt" height="196pt"
 viewBox="0.00 0.00 435.00 196.00" xmlns="http://www.w3.org/2000/svg" xmlns:xlink="http://www.w3.org/1999/xlink">
<g id="graph0" class="graph" transform="scale(1 1) rotate(0) translate(4 192)">
<title>IPlugVST3Controller</title>
<polygon fill="white" stroke="none" points="-4,4 -4,-192 431,-192 431,4 -4,4"/>
<!-- Node1 -->
<g id="node1" class="node"><title>Node1</title>
<polygon fill="#bfbfbf" stroke="black" points="142,-0.5 142,-19.5 248,-19.5 248,-0.5 142,-0.5"/>
<text text-anchor="middle" x="195" y="-7.5" font-family="Helvetica,sans-Serif" font-size="10.00">IPlugVST3Controller</text>
</g>
<!-- Node2 -->
<g id="node2" class="node"><title>Node2</title>
<polygon fill="white" stroke="#bfbfbf" points="-0.5,-56.5 -0.5,-75.5 92.5,-75.5 92.5,-56.5 -0.5,-56.5"/>
<text text-anchor="middle" x="46" y="-63.5" font-family="Helvetica,sans-Serif" font-size="10.00">EditControllerEx1</text>
</g>
<!-- Node2&#45;&gt;Node1 -->
<g id="edge1" class="edge"><title>Node2&#45;&gt;Node1</title>
<path fill="none" stroke="midnightblue" d="M79.371,-52.9058C107.384,-42.7536 146.696,-28.5063 171.501,-19.5164"/>
<polygon fill="midnightblue" stroke="midnightblue" points="77.8185,-49.7456 69.6095,-56.4435 80.2037,-56.3267 77.8185,-49.7456"/>
</g>
<!-- Node3 -->
<g id="node3" class="node"><title>Node3</title>
<polygon fill="white" stroke="#bfbfbf" points="111,-56.5 111,-75.5 185,-75.5 185,-56.5 111,-56.5"/>
<text text-anchor="middle" x="148" y="-63.5" font-family="Helvetica,sans-Serif" font-size="10.00">IMidiMapping</text>
</g>
<!-- Node3&#45;&gt;Node1 -->
<g id="edge2" class="edge"><title>Node3&#45;&gt;Node1</title>
<path fill="none" stroke="midnightblue" d="M162.421,-48.4314C170.658,-38.9673 180.654,-27.4827 187.383,-19.7511"/>
<polygon fill="midnightblue" stroke="midnightblue" points="159.686,-46.2421 155.761,-56.083 164.966,-50.8378 159.686,-46.2421"/>
</g>
<!-- Node4 -->
<g id="node4" class="node"><title>Node4</title>
<g id="a_node4"><a xlink:href="class_i_plug_a_p_i_base.html" target="_top" xlink:title="The base class of an IPlug plug&#45;in, which interacts with the different plug&#45;in APIs. ">
<polygon fill="white" stroke="black" points="203,-56.5 203,-75.5 281,-75.5 281,-56.5 203,-56.5"/>
<text text-anchor="middle" x="242" y="-63.5" font-family="Helvetica,sans-Serif" font-size="10.00">IPlugAPIBase</text>
</a>
</g>
</g>
<!-- Node4&#45;&gt;Node1 -->
<g id="edge3" class="edge"><title>Node4&#45;&gt;Node1</title>
<path fill="none" stroke="midnightblue" d="M227.579,-48.4314C219.342,-38.9673 209.346,-27.4827 202.617,-19.7511"/>
<polygon fill="midnightblue" stroke="midnightblue" points="225.034,-50.8378 234.239,-56.083 230.314,-46.2421 225.034,-50.8378"/>
</g>
<!-- Node5 -->
<g id="node5" class="node"><title>Node5</title>
<g id="a_node5"><a xlink:href="class_i_plugin_base.html" target="_top" xlink:title="Base class that contains plug&#45;in info and state manipulation methods. ">
<polygon fill="white" stroke="black" points="207.5,-112.5 207.5,-131.5 276.5,-131.5 276.5,-112.5 207.5,-112.5"/>
<text text-anchor="middle" x="242" y="-119.5" font-family="Helvetica,sans-Serif" font-size="10.00">IPluginBase</text>
</a>
</g>
</g>
<!-- Node5&#45;&gt;Node4 -->
<g id="edge4" class="edge"><title>Node5&#45;&gt;Node4</title>
<path fill="none" stroke="midnightblue" d="M242,-101.805C242,-92.9102 242,-82.7798 242,-75.7511"/>
<polygon fill="midnightblue" stroke="midnightblue" points="238.5,-102.083 242,-112.083 245.5,-102.083 238.5,-102.083"/>
</g>
<!-- Node6 -->
<g id="node6" class="node"><title>Node6</title>
<g id="a_node6"><a xlink:href="class_i_editor_delegate.html" target="_top" xlink:title="This pure virtual interface delegates communication in both directions between a UI editor and someth...">
<polygon fill="white" stroke="black" points="166,-168.5 166,-187.5 318,-187.5 318,-168.5 166,-168.5"/>
<text text-anchor="middle" x="242" y="-175.5" font-family="Helvetica,sans-Serif" font-size="10.00">EDITOR_DELEGATE_CLASS</text>
</a>
</g>
</g>
<!-- Node6&#45;&gt;Node5 -->
<g id="edge5" class="edge"><title>Node6&#45;&gt;Node5</title>
<path fill="none" stroke="midnightblue" d="M242,-157.805C242,-148.91 242,-138.78 242,-131.751"/>
<polygon fill="midnightblue" stroke="midnightblue" points="238.5,-158.083 242,-168.083 245.5,-158.083 238.5,-158.083"/>
</g>
<!-- Node7 -->
<g id="node7" class="node"><title>Node7</title>
<g id="a_node7"><a xlink:href="class_i_plug_v_s_t3_controller_base.html" target="_top" xlink:title="Shared VST3 controller code. ">
<polygon fill="white" stroke="black" points="299,-56.5 299,-75.5 427,-75.5 427,-56.5 299,-56.5"/>
<text text-anchor="middle" x="363" y="-63.5" font-family="Helvetica,sans-Serif" font-size="10.00">IPlugVST3ControllerBase</text>
</a>
</g>
</g>
<!-- Node7&#45;&gt;Node1 -->
<g id="edge6" class="edge"><title>Node7&#45;&gt;Node1</title>
<path fill="none" stroke="midnightblue" d="M326.614,-53.3044C294.958,-43.1294 249.832,-28.6246 221.496,-19.5164"/>
<polygon fill="midnightblue" stroke="midnightblue" points="325.789,-56.7155 336.38,-56.4435 327.931,-50.0513 325.789,-56.7155"/>
</g>
</g>
</svg>
