<?xml version="1.0" encoding="UTF-8" standalone="no"?>
<!DOCTYPE svg PUBLIC "-//W3C//DTD SVG 1.1//EN"
 "http://www.w3.org/Graphics/SVG/1.1/DTD/svg11.dtd">
<!-- Generated by graphviz version 2.36.0 (20140111.2315)
 -->
<!-- Title: IPlugVST3ProcessorBase Pages: 1 -->
<svg width="198pt" height="152pt"
 viewBox="0.00 0.00 198.00 152.00" xmlns="http://www.w3.org/2000/svg" xmlns:xlink="http://www.w3.org/1999/xlink">
<g id="graph0" class="graph" transform="scale(1 1) rotate(0) translate(4 148)">
<title>IPlugVST3ProcessorBase</title>
<polygon fill="white" stroke="none" points="-4,4 -4,-148 194,-148 194,4 -4,4"/>
<!-- Node1 -->
<g id="node1" class="node"><title>Node1</title>
<polygon fill="#bfbfbf" stroke="black" points="18.5,-56.5 18.5,-75.5 149.5,-75.5 149.5,-56.5 18.5,-56.5"/>
<text text-anchor="middle" x="84" y="-63.5" font-family="Helvetica,sans-Serif" font-size="10.00">IPlugVST3ProcessorBase</text>
</g>
<!-- Node3 -->
<g id="node3" class="node"><title>Node3</title>
<g id="a_node3"><a xlink:href="class_i_plug_v_s_t3.html" target="_top" xlink:title="VST3 base class for a non&#45;distributed IPlug VST3 plug&#45;in. ">
<polygon fill="white" stroke="black" points="0,-0.5 0,-19.5 64,-19.5 64,-0.5 0,-0.5"/>
<text text-anchor="middle" x="32" y="-7.5" font-family="Helvetica,sans-Serif" font-size="10.00">IPlugVST3</text>
</a>
</g>
</g>
<!-- Node1&#45;&gt;Node3 -->
<g id="edge2" class="edge"><title>Node1&#45;&gt;Node3</title>
<path fill="none" stroke="midnightblue" d="M68.3206,-48.7175C59.1553,-39.1997 47.9474,-27.5608 40.427,-19.7511"/>
<polygon fill="midnightblue" stroke="midnightblue" points="65.9557,-51.3075 75.4133,-56.083 70.9979,-46.452 65.9557,-51.3075"/>
</g>
<!-- Node4 -->
<g id="node4" class="node"><title>Node4</title>
<g id="a_node4"><a xlink:href="class_i_plug_v_s_t3_processor.html" target="_top" xlink:title="VST3 Processor API&#45;base class for a distributed IPlug VST3 plug&#45;in. ">
<polygon fill="white" stroke="black" points="82,-0.5 82,-19.5 190,-19.5 190,-0.5 82,-0.5"/>
<text text-anchor="middle" x="136" y="-7.5" font-family="Helvetica,sans-Serif" font-size="10.00">IPlugVST3Processor</text>
</a>
</g>
</g>
<!-- Node1&#45;&gt;Node4 -->
<g id="edge3" class="edge"><title>Node1&#45;&gt;Node4</title>
<path fill="none" stroke="midnightblue" d="M99.6794,-48.7175C108.845,-39.1997 120.053,-27.5608 127.573,-19.7511"/>
<polygon fill="midnightblue" stroke="midnightblue" points="97.0021,-46.452 92.5867,-56.083 102.044,-51.3075 97.0021,-46.452"/>
</g>
<!-- Node2 -->
<g id="node2" class="node"><title>Node2</title>
<g id="a_node2"><a xlink:href="class_i_plug_processor.html" target="_top" xlink:title="IPlugProcessor\&lt; PLUG\l_SAMPLE_DST \&gt;">
<polygon fill="white" stroke="black" points="24.5,-113 24.5,-143 143.5,-143 143.5,-113 24.5,-113"/>
<text text-anchor="start" x="32.5" y="-131" font-family="Helvetica,sans-Serif" font-size="10.00">IPlugProcessor&lt; PLUG</text>
<text text-anchor="middle" x="84" y="-120" font-family="Helvetica,sans-Serif" font-size="10.00">_SAMPLE_DST &gt;</text>
</a>
</g>
</g>
<!-- Node2&#45;&gt;Node1 -->
<g id="edge1" class="edge"><title>Node2&#45;&gt;Node1</title>
<path fill="none" stroke="midnightblue" d="M84,-102.586C84,-93.0743 84,-82.7864 84,-75.7305"/>
<polygon fill="midnightblue" stroke="midnightblue" points="80.5001,-102.781 84,-112.781 87.5001,-102.781 80.5001,-102.781"/>
</g>
</g>
</svg>
