<?xml version="1.0" encoding="UTF-8" standalone="no"?>
<!DOCTYPE svg PUBLIC "-//W3C//DTD SVG 1.1//EN"
 "http://www.w3.org/Graphics/SVG/1.1/DTD/svg11.dtd">
<!-- Generated by graphviz version 2.36.0 (20140111.2315)
 -->
<!-- Title: IPlugVST3Processor Pages: 1 -->
<svg width="321pt" height="208pt"
 viewBox="0.00 0.00 321.00 208.00" xmlns="http://www.w3.org/2000/svg" xmlns:xlink="http://www.w3.org/1999/xlink">
<g id="graph0" class="graph" transform="scale(1 1) rotate(0) translate(4 204)">
<title>IPlugVST3Processor</title>
<polygon fill="white" stroke="none" points="-4,4 -4,-204 317,-204 317,4 -4,4"/>
<!-- Node1 -->
<g id="node1" class="node"><title>Node1</title>
<polygon fill="#bfbfbf" stroke="black" points="71,-0.5 71,-19.5 179,-19.5 179,-0.5 71,-0.5"/>
<text text-anchor="middle" x="125" y="-7.5" font-family="Helvetica,sans-Serif" font-size="10.00">IPlugVST3Processor</text>
</g>
<!-- Node2 -->
<g id="node2" class="node"><title>Node2</title>
<polygon fill="white" stroke="#bfbfbf" points="0,-56.5 0,-75.5 68,-75.5 68,-56.5 0,-56.5"/>
<text text-anchor="middle" x="34" y="-63.5" font-family="Helvetica,sans-Serif" font-size="10.00">AudioEffect</text>
</g>
<!-- Node2&#45;&gt;Node1 -->
<g id="edge1" class="edge"><title>Node2&#45;&gt;Node1</title>
<path fill="none" stroke="midnightblue" d="M57.2937,-51.1774C74.0389,-41.2407 96.1004,-28.1492 110.416,-19.6545"/>
<polygon fill="midnightblue" stroke="midnightblue" points="55.4344,-48.2108 48.6207,-56.324 59.0067,-54.2307 55.4344,-48.2108"/>
</g>
<!-- Node3 -->
<g id="node3" class="node"><title>Node3</title>
<g id="a_node3"><a xlink:href="class_i_plug_a_p_i_base.html" target="_top" xlink:title="The base class of an IPlug plug&#45;in, which interacts with the different plug&#45;in APIs. ">
<polygon fill="white" stroke="black" points="86,-56.5 86,-75.5 164,-75.5 164,-56.5 86,-56.5"/>
<text text-anchor="middle" x="125" y="-63.5" font-family="Helvetica,sans-Serif" font-size="10.00">IPlugAPIBase</text>
</a>
</g>
</g>
<!-- Node3&#45;&gt;Node1 -->
<g id="edge2" class="edge"><title>Node3&#45;&gt;Node1</title>
<path fill="none" stroke="midnightblue" d="M125,-45.8045C125,-36.9102 125,-26.7798 125,-19.7511"/>
<polygon fill="midnightblue" stroke="midnightblue" points="121.5,-46.083 125,-56.083 128.5,-46.083 121.5,-46.083"/>
</g>
<!-- Node4 -->
<g id="node4" class="node"><title>Node4</title>
<g id="a_node4"><a xlink:href="class_i_plugin_base.html" target="_top" xlink:title="Base class that contains plug&#45;in info and state manipulation methods. ">
<polygon fill="white" stroke="black" points="90.5,-118.5 90.5,-137.5 159.5,-137.5 159.5,-118.5 90.5,-118.5"/>
<text text-anchor="middle" x="125" y="-125.5" font-family="Helvetica,sans-Serif" font-size="10.00">IPluginBase</text>
</a>
</g>
</g>
<!-- Node4&#45;&gt;Node3 -->
<g id="edge3" class="edge"><title>Node4&#45;&gt;Node3</title>
<path fill="none" stroke="midnightblue" d="M125,-108.16C125,-97.2482 125,-84.04 125,-75.5806"/>
<polygon fill="midnightblue" stroke="midnightblue" points="121.5,-108.403 125,-118.403 128.5,-108.403 121.5,-108.403"/>
</g>
<!-- Node5 -->
<g id="node5" class="node"><title>Node5</title>
<g id="a_node5"><a xlink:href="class_i_editor_delegate.html" target="_top" xlink:title="This pure virtual interface delegates communication in both directions between a UI editor and someth...">
<polygon fill="white" stroke="black" points="49,-180.5 49,-199.5 201,-199.5 201,-180.5 49,-180.5"/>
<text text-anchor="middle" x="125" y="-187.5" font-family="Helvetica,sans-Serif" font-size="10.00">EDITOR_DELEGATE_CLASS</text>
</a>
</g>
</g>
<!-- Node5&#45;&gt;Node4 -->
<g id="edge4" class="edge"><title>Node5&#45;&gt;Node4</title>
<path fill="none" stroke="midnightblue" d="M125,-170.16C125,-159.248 125,-146.04 125,-137.581"/>
<polygon fill="midnightblue" stroke="midnightblue" points="121.5,-170.403 125,-180.403 128.5,-170.403 121.5,-170.403"/>
</g>
<!-- Node6 -->
<g id="node6" class="node"><title>Node6</title>
<g id="a_node6"><a xlink:href="class_i_plug_v_s_t3_processor_base.html" target="_top" xlink:title="Shared VST3 processor code. ">
<polygon fill="white" stroke="black" points="182.5,-56.5 182.5,-75.5 313.5,-75.5 313.5,-56.5 182.5,-56.5"/>
<text text-anchor="middle" x="248" y="-63.5" font-family="Helvetica,sans-Serif" font-size="10.00">IPlugVST3ProcessorBase</text>
</a>
</g>
</g>
<!-- Node6&#45;&gt;Node1 -->
<g id="edge5" class="edge"><title>Node6&#45;&gt;Node1</title>
<path fill="none" stroke="midnightblue" d="M219.227,-52.3678C196.193,-42.2553 164.516,-28.3486 144.399,-19.5164"/>
<polygon fill="midnightblue" stroke="midnightblue" points="217.947,-55.6283 228.51,-56.4435 220.761,-49.2188 217.947,-55.6283"/>
</g>
<!-- Node7 -->
<g id="node7" class="node"><title>Node7</title>
<g id="a_node7"><a xlink:href="class_i_plug_processor.html" target="_top" xlink:title="IPlugProcessor\&lt; PLUG\l_SAMPLE_DST \&gt;">
<polygon fill="white" stroke="black" points="188.5,-113 188.5,-143 307.5,-143 307.5,-113 188.5,-113"/>
<text text-anchor="start" x="196.5" y="-131" font-family="Helvetica,sans-Serif" font-size="10.00">IPlugProcessor&lt; PLUG</text>
<text text-anchor="middle" x="248" y="-120" font-family="Helvetica,sans-Serif" font-size="10.00">_SAMPLE_DST &gt;</text>
</a>
</g>
</g>
<!-- Node7&#45;&gt;Node6 -->
<g id="edge6" class="edge"><title>Node7&#45;&gt;Node6</title>
<path fill="none" stroke="midnightblue" d="M248,-102.586C248,-93.0743 248,-82.7864 248,-75.7305"/>
<polygon fill="midnightblue" stroke="midnightblue" points="244.5,-102.781 248,-112.781 251.5,-102.781 244.5,-102.781"/>
</g>
</g>
</svg>
