<?xml version="1.0" encoding="UTF-8" standalone="no"?>
<!DOCTYPE svg PUBLIC "-//W3C//DTD SVG 1.1//EN"
 "http://www.w3.org/Graphics/SVG/1.1/DTD/svg11.dtd">
<!-- Generated by graphviz version 2.36.0 (20140111.2315)
 -->
<!-- Title: IFontData Pages: 1 -->
<svg width="216pt" height="96pt"
 viewBox="0.00 0.00 216.00 96.00" xmlns="http://www.w3.org/2000/svg" xmlns:xlink="http://www.w3.org/1999/xlink">
<g id="graph0" class="graph" transform="scale(1 1) rotate(0) translate(4 92)">
<title>IFontData</title>
<polygon fill="white" stroke="none" points="-4,4 -4,-92 212,-92 212,4 -4,4"/>
<!-- Node1 -->
<g id="node1" class="node"><title>Node1</title>
<polygon fill="#bfbfbf" stroke="black" points="54,-0.5 54,-19.5 114,-19.5 114,-0.5 54,-0.5"/>
<text text-anchor="middle" x="84" y="-7.5" font-family="Helvetica,sans-Serif" font-size="10.00">IFontData</text>
</g>
<!-- Node2 -->
<g id="node2" class="node"><title>Node2</title>
<g id="a_node2"><a xlink:href="class_i_font_info.html" target="_top" xlink:title="Used to retrieve font info directly from a raw memory buffer. ">
<polygon fill="white" stroke="black" points="0,-62.5 0,-81.5 56,-81.5 56,-62.5 0,-62.5"/>
<text text-anchor="middle" x="28" y="-69.5" font-family="Helvetica,sans-Serif" font-size="10.00">IFontInfo</text>
</a>
</g>
</g>
<!-- Node2&#45;&gt;Node1 -->
<g id="edge1" class="edge"><title>Node2&#45;&gt;Node1</title>
<path fill="none" stroke="midnightblue" d="M43.0612,-54.863C53.6607,-43.5064 67.4311,-28.7524 75.9914,-19.5806"/>
<polygon fill="midnightblue" stroke="midnightblue" points="40.2879,-52.7048 36.0234,-62.4035 45.4054,-57.481 40.2879,-52.7048"/>
</g>
<!-- Node3 -->
<g id="node3" class="node"><title>Node3</title>
<polygon fill="white" stroke="#bfbfbf" points="74,-57 74,-87 208,-87 208,-57 74,-57"/>
<text text-anchor="start" x="82" y="-75" font-family="Helvetica,sans-Serif" font-size="10.00">WDL_TypedBuf&lt; unsigned</text>
<text text-anchor="middle" x="141" y="-64" font-family="Helvetica,sans-Serif" font-size="10.00"> char &gt;</text>
</g>
<!-- Node3&#45;&gt;Node1 -->
<g id="edge2" class="edge"><title>Node3&#45;&gt;Node1</title>
<path fill="none" stroke="#8b1a1a" d="M120.406,-49.3217C110.691,-39.0958 99.6457,-27.4692 92.294,-19.7305"/>
<polygon fill="#8b1a1a" stroke="#8b1a1a" points="118.067,-51.9415 127.492,-56.7808 123.142,-47.1202 118.067,-51.9415"/>
</g>
</g>
</svg>
