<?xml version="1.0" encoding="UTF-8" standalone="no"?>
<!DOCTYPE svg PUBLIC "-//W3C//DTD SVG 1.1//EN"
 "http://www.w3.org/Graphics/SVG/1.1/DTD/svg11.dtd">
<!-- Generated by graphviz version 2.36.0 (20140111.2315)
 -->
<!-- Title: IVectorBase Pages: 1 -->
<svg width="424pt" height="382pt"
 viewBox="0.00 0.00 424.00 382.00" xmlns="http://www.w3.org/2000/svg" xmlns:xlink="http://www.w3.org/1999/xlink">
<g id="graph0" class="graph" transform="scale(1 1) rotate(0) translate(4 378)">
<title>IVectorBase</title>
<polygon fill="white" stroke="none" points="-4,4 -4,-378 420,-378 420,4 -4,4"/>
<!-- Node1 -->
<g id="node1" class="node"><title>Node1</title>
<polygon fill="#bfbfbf" stroke="black" points="0.5,-180.5 0.5,-199.5 71.5,-199.5 71.5,-180.5 0.5,-180.5"/>
<text text-anchor="middle" x="36" y="-187.5" font-family="Helvetica,sans-Serif" font-size="10.00">IVectorBase</text>
</g>
<!-- Node2 -->
<g id="node2" class="node"><title>Node2</title>
<g id="a_node2"><a xlink:href="class_i_f_p_s_display_control.html" target="_top" xlink:title="Performance display meter, based on code from NanoVG This is a special control that lives outside the...">
<polygon fill="white" stroke="black" points="126,-354.5 126,-373.5 230,-373.5 230,-354.5 126,-354.5"/>
<text text-anchor="middle" x="178" y="-361.5" font-family="Helvetica,sans-Serif" font-size="10.00">IFPSDisplayControl</text>
</a>
</g>
</g>
<!-- Node1&#45;&gt;Node2 -->
<g id="edge1" class="edge"><title>Node1&#45;&gt;Node2</title>
<path fill="none" stroke="midnightblue" d="M40.5107,-209.917C47.3996,-242.99 65.8543,-309.141 108,-345 113.205,-349.428 119.358,-352.831 125.812,-355.444"/>
<polygon fill="midnightblue" stroke="midnightblue" points="43.8705,-208.856 38.5365,-199.702 36.9977,-210.184 43.8705,-208.856"/>
</g>
<!-- Node3 -->
<g id="node3" class="node"><title>Node3</title>
<g id="a_node3"><a xlink:href="class_i_v_button_control.html" target="_top" xlink:title="A vector button/momentary switch control. ">
<polygon fill="white" stroke="black" points="135,-316.5 135,-335.5 221,-335.5 221,-316.5 135,-316.5"/>
<text text-anchor="middle" x="178" y="-323.5" font-family="Helvetica,sans-Serif" font-size="10.00">IVButtonControl</text>
</a>
</g>
</g>
<!-- Node1&#45;&gt;Node3 -->
<g id="edge2" class="edge"><title>Node1&#45;&gt;Node3</title>
<path fill="none" stroke="midnightblue" d="M43.4353,-209.068C53.221,-235.14 74.343,-281.571 108,-307 115.832,-312.917 125.401,-316.992 134.889,-319.797"/>
<polygon fill="midnightblue" stroke="midnightblue" points="46.6973,-207.796 40.0329,-199.559 40.1065,-210.154 46.6973,-207.796"/>
</g>
<!-- Node4 -->
<g id="node4" class="node"><title>Node4</title>
<g id="a_node4"><a xlink:href="class_i_v_keyboard_control.html" target="_top" xlink:title="Vectorial keyboard control. ">
<polygon fill="white" stroke="black" points="128.5,-278.5 128.5,-297.5 227.5,-297.5 227.5,-278.5 128.5,-278.5"/>
<text text-anchor="middle" x="178" y="-285.5" font-family="Helvetica,sans-Serif" font-size="10.00">IVKeyboardControl</text>
</a>
</g>
</g>
<!-- Node1&#45;&gt;Node4 -->
<g id="edge3" class="edge"><title>Node1&#45;&gt;Node4</title>
<path fill="none" stroke="midnightblue" d="M48.6555,-208.132C61.1899,-226.186 82.7554,-253.394 108,-269 114.235,-272.855 121.262,-275.942 128.383,-278.411"/>
<polygon fill="midnightblue" stroke="midnightblue" points="51.4317,-205.988 42.9524,-199.635 45.6196,-209.889 51.4317,-205.988"/>
</g>
<!-- Node5 -->
<g id="node5" class="node"><title>Node5</title>
<g id="a_node5"><a xlink:href="class_i_v_knob_control.html" target="_top" xlink:title="A vector knob control drawn using graphics primitves. ">
<polygon fill="white" stroke="black" points="138,-240.5 138,-259.5 218,-259.5 218,-240.5 138,-240.5"/>
<text text-anchor="middle" x="178" y="-247.5" font-family="Helvetica,sans-Serif" font-size="10.00">IVKnobControl</text>
</a>
</g>
</g>
<!-- Node1&#45;&gt;Node5 -->
<g id="edge4" class="edge"><title>Node1&#45;&gt;Node5</title>
<path fill="none" stroke="midnightblue" d="M59.7749,-205.152C73.3378,-213.659 91.1426,-223.948 108,-231 117.399,-234.932 127.857,-238.294 137.73,-241.049"/>
<polygon fill="midnightblue" stroke="midnightblue" points="61.4345,-202.059 51.1267,-199.609 57.6573,-207.952 61.4345,-202.059"/>
</g>
<!-- Node6 -->
<g id="node6" class="node"><title>Node6</title>
<g id="a_node6"><a xlink:href="class_i_v_radio_button_control.html" target="_top" xlink:title="A vector switch control. ">
<polygon fill="white" stroke="black" points="122,-202.5 122,-221.5 234,-221.5 234,-202.5 122,-202.5"/>
<text text-anchor="middle" x="178" y="-209.5" font-family="Helvetica,sans-Serif" font-size="10.00">IVRadioButtonControl</text>
</a>
</g>
</g>
<!-- Node1&#45;&gt;Node6 -->
<g id="edge5" class="edge"><title>Node1&#45;&gt;Node6</title>
<path fill="none" stroke="midnightblue" d="M81.5494,-197.001C94.3476,-199.012 108.46,-201.229 121.817,-203.328"/>
<polygon fill="midnightblue" stroke="midnightblue" points="82.0289,-193.533 71.6068,-195.438 80.9422,-200.448 82.0289,-193.533"/>
</g>
<!-- Node7 -->
<g id="node7" class="node"><title>Node7</title>
<g id="a_node7"><a xlink:href="class_i_v_scope_control.html" target="_top" xlink:title="Vectorial multichannel capable oscilloscope control. ">
<polygon fill="white" stroke="black" points="108,-153 108,-183 248,-183 248,-153 108,-153"/>
<text text-anchor="start" x="116" y="-171" font-family="Helvetica,sans-Serif" font-size="10.00">IVScopeControl&lt; MAXNC,</text>
<text text-anchor="middle" x="178" y="-160" font-family="Helvetica,sans-Serif" font-size="10.00"> MAXBUF, QUEUE_SIZE &gt;</text>
</a>
</g>
</g>
<!-- Node1&#45;&gt;Node7 -->
<g id="edge6" class="edge"><title>Node1&#45;&gt;Node7</title>
<path fill="none" stroke="midnightblue" d="M81.5149,-183.005C89.8996,-181.687 98.8492,-180.281 107.782,-178.877"/>
<polygon fill="midnightblue" stroke="midnightblue" points="80.9422,-179.552 71.6068,-184.562 82.0289,-186.467 80.9422,-179.552"/>
</g>
<!-- Node8 -->
<g id="node8" class="node"><title>Node8</title>
<g id="a_node8"><a xlink:href="class_i_v_slider_control.html" target="_top" xlink:title="A vector slider control. ">
<polygon fill="white" stroke="black" points="136.5,-114.5 136.5,-133.5 219.5,-133.5 219.5,-114.5 136.5,-114.5"/>
<text text-anchor="middle" x="178" y="-121.5" font-family="Helvetica,sans-Serif" font-size="10.00">IVSliderControl</text>
</a>
</g>
</g>
<!-- Node1&#45;&gt;Node8 -->
<g id="edge7" class="edge"><title>Node1&#45;&gt;Node8</title>
<path fill="none" stroke="midnightblue" d="M57.6463,-174.304C71.3369,-164.495 90.0274,-152.21 108,-144 116.962,-139.906 126.964,-136.434 136.51,-133.59"/>
<polygon fill="midnightblue" stroke="midnightblue" points="55.427,-171.591 49.4295,-180.325 59.5645,-177.238 55.427,-171.591"/>
</g>
<!-- Node10 -->
<g id="node10" class="node"><title>Node10</title>
<g id="a_node10"><a xlink:href="class_i_v_switch_control.html" target="_top" xlink:title="A vector switch control. ">
<polygon fill="white" stroke="black" points="134,-76.5 134,-95.5 222,-95.5 222,-76.5 134,-76.5"/>
<text text-anchor="middle" x="178" y="-83.5" font-family="Helvetica,sans-Serif" font-size="10.00">IVSwitchControl</text>
</a>
</g>
</g>
<!-- Node1&#45;&gt;Node10 -->
<g id="edge9" class="edge"><title>Node1&#45;&gt;Node10</title>
<path fill="none" stroke="midnightblue" d="M47.5886,-171.657C59.7361,-152.241 81.4422,-122.09 108,-105 115.732,-100.024 124.759,-96.3377 133.687,-93.6106"/>
<polygon fill="midnightblue" stroke="midnightblue" points="44.4437,-170.095 42.2729,-180.465 50.4368,-173.712 44.4437,-170.095"/>
</g>
<!-- Node11 -->
<g id="node11" class="node"><title>Node11</title>
<g id="a_node11"><a xlink:href="class_i_v_track_control_base.html" target="_top" xlink:title="A base class for mult&#45;strip/track controls, such as multi&#45;sliders, meters. ">
<polygon fill="white" stroke="black" points="125.5,-38.5 125.5,-57.5 230.5,-57.5 230.5,-38.5 125.5,-38.5"/>
<text text-anchor="middle" x="178" y="-45.5" font-family="Helvetica,sans-Serif" font-size="10.00">IVTrackControlBase</text>
</a>
</g>
</g>
<!-- Node1&#45;&gt;Node11 -->
<g id="edge10" class="edge"><title>Node1&#45;&gt;Node11</title>
<path fill="none" stroke="midnightblue" d="M42.8952,-170.732C52.2317,-143.488 73.0383,-94.0217 108,-67 113.21,-62.9729 119.221,-59.7989 125.477,-57.2974"/>
<polygon fill="midnightblue" stroke="midnightblue" points="39.5472,-169.71 39.7772,-180.303 46.2028,-171.879 39.5472,-169.71"/>
</g>
<!-- Node14 -->
<g id="node14" class="node"><title>Node14</title>
<g id="a_node14"><a xlink:href="class_i_v_x_y_pad_control.html" target="_top" xlink:title="IVXYPadControl">
<polygon fill="white" stroke="black" points="133.5,-0.5 133.5,-19.5 222.5,-19.5 222.5,-0.5 133.5,-0.5"/>
<text text-anchor="middle" x="178" y="-7.5" font-family="Helvetica,sans-Serif" font-size="10.00">IVXYPadControl</text>
</a>
</g>
</g>
<!-- Node1&#45;&gt;Node14 -->
<g id="edge13" class="edge"><title>Node1&#45;&gt;Node14</title>
<path fill="none" stroke="midnightblue" d="M40.096,-170.264C46.485,-136.259 64.3688,-66.6604 108,-29 115.148,-22.8298 124.134,-18.6486 133.235,-15.8193"/>
<polygon fill="midnightblue" stroke="midnightblue" points="36.61,-169.882 38.3494,-180.333 43.507,-171.079 36.61,-169.882"/>
</g>
<!-- Node9 -->
<g id="node9" class="node"><title>Node9</title>
<g id="a_node9"><a xlink:href="class_i_v_range_slider_control.html" target="_top" xlink:title="IVRangeSliderControl">
<polygon fill="white" stroke="black" points="294.5,-114.5 294.5,-133.5 405.5,-133.5 405.5,-114.5 294.5,-114.5"/>
<text text-anchor="middle" x="350" y="-121.5" font-family="Helvetica,sans-Serif" font-size="10.00">IVRangeSliderControl</text>
</a>
</g>
</g>
<!-- Node8&#45;&gt;Node9 -->
<g id="edge8" class="edge"><title>Node8&#45;&gt;Node9</title>
<path fill="none" stroke="midnightblue" d="M229.758,-124C250.154,-124 273.709,-124 294.469,-124"/>
<polygon fill="midnightblue" stroke="midnightblue" points="229.719,-120.5 219.719,-124 229.719,-127.5 229.719,-120.5"/>
</g>
<!-- Node12 -->
<g id="node12" class="node"><title>Node12</title>
<g id="a_node12"><a xlink:href="class_i_v_meter_control.html" target="_top" xlink:title="Vectorial multichannel capable meter control. ">
<polygon fill="white" stroke="black" points="284.5,-49 284.5,-79 415.5,-79 415.5,-49 284.5,-49"/>
<text text-anchor="start" x="292.5" y="-67" font-family="Helvetica,sans-Serif" font-size="10.00">IVMeterControl&lt; MAXNC,</text>
<text text-anchor="middle" x="350" y="-56" font-family="Helvetica,sans-Serif" font-size="10.00"> QUEUE_SIZE &gt;</text>
</a>
</g>
</g>
<!-- Node11&#45;&gt;Node12 -->
<g id="edge11" class="edge"><title>Node11&#45;&gt;Node12</title>
<path fill="none" stroke="midnightblue" d="M241.039,-53.8389C255.179,-55.1698 270.235,-56.5869 284.477,-57.9272"/>
<polygon fill="midnightblue" stroke="midnightblue" points="241.213,-50.34 230.929,-52.8875 240.557,-57.3092 241.213,-50.34"/>
</g>
<!-- Node13 -->
<g id="node13" class="node"><title>Node13</title>
<g id="a_node13"><a xlink:href="class_i_v_multi_slider_control.html" target="_top" xlink:title="A vectorial multi&#45;slider control. ">
<polygon fill="white" stroke="black" points="298,-0 298,-30 402,-30 402,-0 298,-0"/>
<text text-anchor="start" x="306" y="-18" font-family="Helvetica,sans-Serif" font-size="10.00">IVMultiSliderControl</text>
<text text-anchor="middle" x="350" y="-7" font-family="Helvetica,sans-Serif" font-size="10.00">&lt; MAXNC &gt;</text>
</a>
</g>
</g>
<!-- Node11&#45;&gt;Node13 -->
<g id="edge12" class="edge"><title>Node11&#45;&gt;Node13</title>
<path fill="none" stroke="midnightblue" d="M238.14,-36.5198C257.6,-32.7424 279.058,-28.5769 297.87,-24.9252"/>
<polygon fill="midnightblue" stroke="midnightblue" points="237.321,-33.1135 228.171,-38.455 238.655,-39.9852 237.321,-33.1135"/>
</g>
</g>
</svg>
