<?xml version="1.0" encoding="UTF-8" standalone="no"?>
<!DOCTYPE svg PUBLIC "-//W3C//DTD SVG 1.1//EN"
 "http://www.w3.org/Graphics/SVG/1.1/DTD/svg11.dtd">
<!-- Generated by graphviz version 2.36.0 (20140111.2315)
 -->
<!-- Title: PlatformFont Pages: 1 -->
<svg width="230pt" height="140pt"
 viewBox="0.00 0.00 230.00 140.00" xmlns="http://www.w3.org/2000/svg" xmlns:xlink="http://www.w3.org/1999/xlink">
<g id="graph0" class="graph" transform="scale(1 1) rotate(0) translate(4 136)">
<title>PlatformFont</title>
<polygon fill="white" stroke="none" points="-4,4 -4,-136 226,-136 226,4 -4,4"/>
<!-- Node1 -->
<g id="node1" class="node"><title>Node1</title>
<polygon fill="#bfbfbf" stroke="black" points="86.5,-112.5 86.5,-131.5 159.5,-131.5 159.5,-112.5 86.5,-112.5"/>
<text text-anchor="middle" x="123" y="-119.5" font-family="Helvetica,sans-Serif" font-size="10.00">PlatformFont</text>
</g>
<!-- Node2 -->
<g id="node2" class="node"><title>Node2</title>
<g id="a_node2"><a xlink:href="class_core_text_font.html" target="_top" xlink:title="CoreTextFont">
<polygon fill="white" stroke="black" points="-0.5,-56.5 -0.5,-75.5 76.5,-75.5 76.5,-56.5 -0.5,-56.5"/>
<text text-anchor="middle" x="38" y="-63.5" font-family="Helvetica,sans-Serif" font-size="10.00">CoreTextFont</text>
</a>
</g>
</g>
<!-- Node1&#45;&gt;Node2 -->
<g id="edge1" class="edge"><title>Node1&#45;&gt;Node2</title>
<path fill="none" stroke="midnightblue" d="M100.806,-106.901C85.22,-96.9986 64.8703,-84.0705 51.6228,-75.6545"/>
<polygon fill="midnightblue" stroke="midnightblue" points="99.0257,-109.916 109.343,-112.324 102.779,-104.007 99.0257,-109.916"/>
</g>
<!-- Node3 -->
<g id="node3" class="node"><title>Node3</title>
<g id="a_node3"><a xlink:href="class_web_font.html" target="_top" xlink:title="WebFont">
<polygon fill="white" stroke="black" points="95,-56.5 95,-75.5 151,-75.5 151,-56.5 95,-56.5"/>
<text text-anchor="middle" x="123" y="-63.5" font-family="Helvetica,sans-Serif" font-size="10.00">WebFont</text>
</a>
</g>
</g>
<!-- Node1&#45;&gt;Node3 -->
<g id="edge2" class="edge"><title>Node1&#45;&gt;Node3</title>
<path fill="none" stroke="midnightblue" d="M123,-101.805C123,-92.9102 123,-82.7798 123,-75.7511"/>
<polygon fill="midnightblue" stroke="midnightblue" points="119.5,-102.083 123,-112.083 126.5,-102.083 119.5,-102.083"/>
</g>
<!-- Node5 -->
<g id="node5" class="node"><title>Node5</title>
<g id="a_node5"><a xlink:href="class_win_font.html" target="_top" xlink:title="WinFont">
<polygon fill="white" stroke="black" points="169.5,-56.5 169.5,-75.5 222.5,-75.5 222.5,-56.5 169.5,-56.5"/>
<text text-anchor="middle" x="196" y="-63.5" font-family="Helvetica,sans-Serif" font-size="10.00">WinFont</text>
</a>
</g>
</g>
<!-- Node1&#45;&gt;Node5 -->
<g id="edge4" class="edge"><title>Node1&#45;&gt;Node5</title>
<path fill="none" stroke="midnightblue" d="M143.142,-106.101C156.279,-96.3824 172.982,-84.0269 184.058,-75.8339"/>
<polygon fill="midnightblue" stroke="midnightblue" points="140.687,-103.563 134.729,-112.324 144.85,-109.191 140.687,-103.563"/>
</g>
<!-- Node4 -->
<g id="node4" class="node"><title>Node4</title>
<g id="a_node4"><a xlink:href="class_web_file_font.html" target="_top" xlink:title="WebFileFont">
<polygon fill="white" stroke="black" points="87,-0.5 87,-19.5 159,-19.5 159,-0.5 87,-0.5"/>
<text text-anchor="middle" x="123" y="-7.5" font-family="Helvetica,sans-Serif" font-size="10.00">WebFileFont</text>
</a>
</g>
</g>
<!-- Node3&#45;&gt;Node4 -->
<g id="edge3" class="edge"><title>Node3&#45;&gt;Node4</title>
<path fill="none" stroke="midnightblue" d="M123,-45.8045C123,-36.9102 123,-26.7798 123,-19.7511"/>
<polygon fill="midnightblue" stroke="midnightblue" points="119.5,-46.083 123,-56.083 126.5,-46.083 119.5,-46.083"/>
</g>
</g>
</svg>
