<?xml version="1.0" encoding="UTF-8" standalone="no"?>
<!DOCTYPE svg PUBLIC "-//W3C//DTD SVG 1.1//EN"
 "http://www.w3.org/Graphics/SVG/1.1/DTD/svg11.dtd">
<!-- Generated by graphviz version 2.36.0 (20140111.2315)
 -->
<!-- Title: ISliderControlBase Pages: 1 -->
<svg width="205pt" height="196pt"
 viewBox="0.00 0.00 205.00 196.00" xmlns="http://www.w3.org/2000/svg" xmlns:xlink="http://www.w3.org/1999/xlink">
<g id="graph0" class="graph" transform="scale(1 1) rotate(0) translate(4 192)">
<title>ISliderControlBase</title>
<polygon fill="white" stroke="none" points="-4,4 -4,-192 201,-192 201,4 -4,4"/>
<!-- Node1 -->
<g id="node1" class="node"><title>Node1</title>
<polygon fill="#bfbfbf" stroke="black" points="42,-112.5 42,-131.5 140,-131.5 140,-112.5 42,-112.5"/>
<text text-anchor="middle" x="91" y="-119.5" font-family="Helvetica,sans-Serif" font-size="10.00">ISliderControlBase</text>
</g>
<!-- Node3 -->
<g id="node3" class="node"><title>Node3</title>
<g id="a_node3"><a xlink:href="class_i_b_slider_control.html" target="_top" xlink:title="A bitmap slider/fader control. ">
<polygon fill="white" stroke="black" points="-0.5,-56.5 -0.5,-75.5 82.5,-75.5 82.5,-56.5 -0.5,-56.5"/>
<text text-anchor="middle" x="41" y="-63.5" font-family="Helvetica,sans-Serif" font-size="10.00">IBSliderControl</text>
</a>
</g>
</g>
<!-- Node1&#45;&gt;Node3 -->
<g id="edge2" class="edge"><title>Node1&#45;&gt;Node3</title>
<path fill="none" stroke="midnightblue" d="M75.9237,-104.718C67.1109,-95.1997 56.3341,-83.5608 49.1028,-75.7511"/>
<polygon fill="midnightblue" stroke="midnightblue" points="73.3812,-107.123 82.7435,-112.083 78.5176,-102.367 73.3812,-107.123"/>
</g>
<!-- Node4 -->
<g id="node4" class="node"><title>Node4</title>
<g id="a_node4"><a xlink:href="class_i_v_slider_control.html" target="_top" xlink:title="A vector slider control. ">
<polygon fill="white" stroke="black" points="100.5,-56.5 100.5,-75.5 183.5,-75.5 183.5,-56.5 100.5,-56.5"/>
<text text-anchor="middle" x="142" y="-63.5" font-family="Helvetica,sans-Serif" font-size="10.00">IVSliderControl</text>
</a>
</g>
</g>
<!-- Node1&#45;&gt;Node4 -->
<g id="edge3" class="edge"><title>Node1&#45;&gt;Node4</title>
<path fill="none" stroke="midnightblue" d="M106.378,-104.718C115.367,-95.1997 126.359,-83.5608 133.735,-75.7511"/>
<polygon fill="midnightblue" stroke="midnightblue" points="103.743,-102.41 99.4216,-112.083 108.832,-107.216 103.743,-102.41"/>
</g>
<!-- Node2 -->
<g id="node2" class="node"><title>Node2</title>
<g id="a_node2"><a xlink:href="class_i_control.html" target="_top" xlink:title="The lowest level base class of an IGraphics control. ">
<polygon fill="white" stroke="black" points="65.5,-168.5 65.5,-187.5 116.5,-187.5 116.5,-168.5 65.5,-168.5"/>
<text text-anchor="middle" x="91" y="-175.5" font-family="Helvetica,sans-Serif" font-size="10.00">IControl</text>
</a>
</g>
</g>
<!-- Node2&#45;&gt;Node1 -->
<g id="edge1" class="edge"><title>Node2&#45;&gt;Node1</title>
<path fill="none" stroke="midnightblue" d="M91,-157.805C91,-148.91 91,-138.78 91,-131.751"/>
<polygon fill="midnightblue" stroke="midnightblue" points="87.5001,-158.083 91,-168.083 94.5001,-158.083 87.5001,-158.083"/>
</g>
<!-- Node5 -->
<g id="node5" class="node"><title>Node5</title>
<g id="a_node5"><a xlink:href="class_i_v_range_slider_control.html" target="_top" xlink:title="IVRangeSliderControl">
<polygon fill="white" stroke="black" points="86.5,-0.5 86.5,-19.5 197.5,-19.5 197.5,-0.5 86.5,-0.5"/>
<text text-anchor="middle" x="142" y="-7.5" font-family="Helvetica,sans-Serif" font-size="10.00">IVRangeSliderControl</text>
</a>
</g>
</g>
<!-- Node4&#45;&gt;Node5 -->
<g id="edge4" class="edge"><title>Node4&#45;&gt;Node5</title>
<path fill="none" stroke="midnightblue" d="M142,-45.8045C142,-36.9102 142,-26.7798 142,-19.7511"/>
<polygon fill="midnightblue" stroke="midnightblue" points="138.5,-46.083 142,-56.083 145.5,-46.083 138.5,-46.083"/>
</g>
</g>
</svg>
