<?xml version="1.0" encoding="UTF-8" standalone="no"?>
<!DOCTYPE svg PUBLIC "-//W3C//DTD SVG 1.1//EN"
 "http://www.w3.org/Graphics/SVG/1.1/DTD/svg11.dtd">
<!-- Generated by graphviz version 2.36.0 (20140111.2315)
 -->
<!-- Title: Graphical Class Hierarchy Pages: 1 -->
<svg width="274pt" height="180pt"
 viewBox="0.00 0.00 274.00 180.00" xmlns="http://www.w3.org/2000/svg" xmlns:xlink="http://www.w3.org/1999/xlink">
<g id="graph0" class="graph" transform="scale(1 1) rotate(0) translate(4 176)">
<title>Graphical Class Hierarchy</title>
<polygon fill="white" stroke="none" points="-4,4 -4,-176 270,-176 270,4 -4,4"/>
<!-- Node1 -->
<g id="node1" class="node"><title>Node1</title>
<polygon fill="white" stroke="#bfbfbf" points="0,-76.5 0,-95.5 148,-95.5 148,-76.5 0,-76.5"/>
<text text-anchor="middle" x="74" y="-83.5" font-family="Helvetica,sans-Serif" font-size="10.00">IGRAPHICS_DRAW_CLASS</text>
</g>
<!-- Node2 -->
<g id="node2" class="node"><title>Node2</title>
<g id="a_node2"><a xlink:href="class_i_graphics_i_o_s.html" target="_top" xlink:title="IGraphics platform class for IOS. ">
<polygon fill="white" stroke="black" points="187,-152.5 187,-171.5 263,-171.5 263,-152.5 187,-152.5"/>
<text text-anchor="middle" x="225" y="-159.5" font-family="Helvetica,sans-Serif" font-size="10.00">IGraphicsIOS</text>
</a>
</g>
</g>
<!-- Node1&#45;&gt;Node2 -->
<g id="edge1" class="edge"><title>Node1&#45;&gt;Node2</title>
<path fill="none" stroke="midnightblue" d="M102.08,-100.53C124.045,-112.226 155.867,-128.969 184,-143 190.329,-146.157 197.276,-149.498 203.578,-152.484"/>
<polygon fill="midnightblue" stroke="midnightblue" points="103.49,-97.3152 93.0201,-95.6941 100.194,-103.491 103.49,-97.3152"/>
</g>
<!-- Node3 -->
<g id="node3" class="node"><title>Node3</title>
<g id="a_node3"><a xlink:href="class_i_graphics_linux.html" target="_top" xlink:title="IGraphics platform class for linux. ">
<polygon fill="white" stroke="black" points="184,-114.5 184,-133.5 266,-133.5 266,-114.5 184,-114.5"/>
<text text-anchor="middle" x="225" y="-121.5" font-family="Helvetica,sans-Serif" font-size="10.00">IGraphicsLinux</text>
</a>
</g>
</g>
<!-- Node1&#45;&gt;Node3 -->
<g id="edge2" class="edge"><title>Node1&#45;&gt;Node3</title>
<path fill="none" stroke="midnightblue" d="M122.492,-98.1121C143.244,-103.404 167.228,-109.521 186.671,-114.48"/>
<polygon fill="midnightblue" stroke="midnightblue" points="123.154,-94.6689 112.599,-95.589 121.424,-101.452 123.154,-94.6689"/>
</g>
<!-- Node4 -->
<g id="node4" class="node"><title>Node4</title>
<g id="a_node4"><a xlink:href="class_i_graphics_mac.html" target="_top" xlink:title="IGraphics platform class for macOS. ">
<polygon fill="white" stroke="black" points="186.5,-76.5 186.5,-95.5 263.5,-95.5 263.5,-76.5 186.5,-76.5"/>
<text text-anchor="middle" x="225" y="-83.5" font-family="Helvetica,sans-Serif" font-size="10.00">IGraphicsMac</text>
</a>
</g>
</g>
<!-- Node1&#45;&gt;Node4 -->
<g id="edge3" class="edge"><title>Node1&#45;&gt;Node4</title>
<path fill="none" stroke="midnightblue" d="M158.419,-86C168.189,-86 177.752,-86 186.422,-86"/>
<polygon fill="midnightblue" stroke="midnightblue" points="158.191,-82.5001 148.19,-86 158.19,-89.5001 158.191,-82.5001"/>
</g>
<!-- Node5 -->
<g id="node5" class="node"><title>Node5</title>
<g id="a_node5"><a xlink:href="class_i_graphics_web.html" target="_top" xlink:title="IGraphics platform class for the web. ">
<polygon fill="white" stroke="black" points="185.5,-38.5 185.5,-57.5 264.5,-57.5 264.5,-38.5 185.5,-38.5"/>
<text text-anchor="middle" x="225" y="-45.5" font-family="Helvetica,sans-Serif" font-size="10.00">IGraphicsWeb</text>
</a>
</g>
</g>
<!-- Node1&#45;&gt;Node5 -->
<g id="edge4" class="edge"><title>Node1&#45;&gt;Node5</title>
<path fill="none" stroke="midnightblue" d="M122.492,-73.8879C143.244,-68.5956 167.228,-62.4787 186.671,-57.5201"/>
<polygon fill="midnightblue" stroke="midnightblue" points="121.424,-70.5482 112.599,-76.411 123.154,-77.3311 121.424,-70.5482"/>
</g>
<!-- Node6 -->
<g id="node6" class="node"><title>Node6</title>
<g id="a_node6"><a xlink:href="class_i_graphics_win.html" target="_top" xlink:title="IGraphics platform class for Windows. ">
<polygon fill="white" stroke="black" points="187,-0.5 187,-19.5 263,-19.5 263,-0.5 187,-0.5"/>
<text text-anchor="middle" x="225" y="-7.5" font-family="Helvetica,sans-Serif" font-size="10.00">IGraphicsWin</text>
</a>
</g>
</g>
<!-- Node1&#45;&gt;Node6 -->
<g id="edge5" class="edge"><title>Node1&#45;&gt;Node6</title>
<path fill="none" stroke="midnightblue" d="M102.08,-71.4702C124.045,-59.7741 155.867,-43.0309 184,-29 190.329,-25.8432 197.276,-22.5015 203.578,-19.5155"/>
<polygon fill="midnightblue" stroke="midnightblue" points="100.194,-68.5094 93.0201,-76.3059 103.49,-74.6848 100.194,-68.5094"/>
</g>
</g>
</svg>
