<?xml version="1.0" encoding="UTF-8" standalone="no"?>
<!DOCTYPE svg PUBLIC "-//W3C//DTD SVG 1.1//EN"
 "http://www.w3.org/Graphics/SVG/1.1/DTD/svg11.dtd">
<!-- Generated by graphviz version 2.36.0 (20140111.2315)
 -->
<!-- Title: Graphical Class Hierarchy Pages: 1 -->
<svg width="690pt" height="579pt"
 viewBox="0.00 0.00 690.00 579.00" xmlns="http://www.w3.org/2000/svg" xmlns:xlink="http://www.w3.org/1999/xlink">
<g id="graph0" class="graph" transform="scale(1 1) rotate(0) translate(4 575)">
<title>Graphical Class Hierarchy</title>
<polygon fill="white" stroke="none" points="-4,4 -4,-575 686,-575 686,4 -4,4"/>
<!-- Node1 -->
<g id="node1" class="node"><title>Node1</title>
<polygon fill="white" stroke="#bfbfbf" points="248,-551.5 248,-570.5 370,-570.5 370,-551.5 248,-551.5"/>
<text text-anchor="middle" x="309" y="-558.5" font-family="Helvetica,sans-Serif" font-size="10.00">AAX_CIPlugParameters</text>
</g>
<!-- Node2 -->
<g id="node2" class="node"><title>Node2</title>
<g id="a_node2"><a xlink:href="class_i_plug_a_a_x.html" target="_top" xlink:title="AAX API base class for an IPlug plug&#45;in. ">
<polygon fill="white" stroke="black" points="442.5,-551.5 442.5,-570.5 501.5,-570.5 501.5,-551.5 442.5,-551.5"/>
<text text-anchor="middle" x="472" y="-558.5" font-family="Helvetica,sans-Serif" font-size="10.00">IPlugAAX</text>
</a>
</g>
</g>
<!-- Node1&#45;&gt;Node2 -->
<g id="edge1" class="edge"><title>Node1&#45;&gt;Node2</title>
<path fill="none" stroke="midnightblue" d="M380.634,-561C402.364,-561 425.068,-561 442.283,-561"/>
<polygon fill="midnightblue" stroke="midnightblue" points="380.409,-557.5 370.409,-561 380.408,-564.5 380.409,-557.5"/>
</g>
<!-- Node3 -->
<g id="node3" class="node"><title>Node3</title>
<polygon fill="white" stroke="#bfbfbf" points="438,-513.5 438,-532.5 506,-532.5 506,-513.5 438,-513.5"/>
<text text-anchor="middle" x="472" y="-520.5" font-family="Helvetica,sans-Serif" font-size="10.00">AudioEffect</text>
</g>
<!-- Node4 -->
<g id="node4" class="node"><title>Node4</title>
<g id="a_node4"><a xlink:href="class_i_plug_v_s_t3_processor.html" target="_top" xlink:title="VST3 Processor API&#45;base class for a distributed IPlug VST3 plug&#45;in. ">
<polygon fill="white" stroke="black" points="574,-475.5 574,-494.5 682,-494.5 682,-475.5 574,-475.5"/>
<text text-anchor="middle" x="628" y="-482.5" font-family="Helvetica,sans-Serif" font-size="10.00">IPlugVST3Processor</text>
</a>
</g>
</g>
<!-- Node3&#45;&gt;Node4 -->
<g id="edge2" class="edge"><title>Node3&#45;&gt;Node4</title>
<path fill="none" stroke="midnightblue" d="M515.765,-512.448C538.494,-506.839 566.221,-499.997 588.306,-494.548"/>
<polygon fill="midnightblue" stroke="midnightblue" points="514.907,-509.054 506.037,-514.848 516.584,-515.85 514.907,-509.054"/>
</g>
<!-- Node5 -->
<g id="node5" class="node"><title>Node5</title>
<polygon fill="white" stroke="#bfbfbf" points="425.5,-95.5 425.5,-114.5 518.5,-114.5 518.5,-95.5 425.5,-95.5"/>
<text text-anchor="middle" x="472" y="-102.5" font-family="Helvetica,sans-Serif" font-size="10.00">EditControllerEx1</text>
</g>
<!-- Node6 -->
<g id="node6" class="node"><title>Node6</title>
<g id="a_node6"><a xlink:href="class_i_plug_v_s_t3_controller.html" target="_top" xlink:title="VST3 Controller API&#45;base class for a distributed IPlug VST3 plug&#45;in. ">
<polygon fill="white" stroke="black" points="575,-114.5 575,-133.5 681,-133.5 681,-114.5 575,-114.5"/>
<text text-anchor="middle" x="628" y="-121.5" font-family="Helvetica,sans-Serif" font-size="10.00">IPlugVST3Controller</text>
</a>
</g>
</g>
<!-- Node5&#45;&gt;Node6 -->
<g id="edge3" class="edge"><title>Node5&#45;&gt;Node6</title>
<path fill="none" stroke="midnightblue" d="M528.959,-111.904C543.962,-113.755 560.119,-115.748 574.904,-117.573"/>
<polygon fill="midnightblue" stroke="midnightblue" points="529.141,-108.4 518.788,-110.649 528.284,-115.347 529.141,-108.4"/>
</g>
<!-- Node7 -->
<g id="node7" class="node"><title>Node7</title>
<g id="a_node7"><a xlink:href="class_i_editor_delegate.html" target="_top" xlink:title="This pure virtual interface delegates communication in both directions between a UI editor and someth...">
<polygon fill="white" stroke="black" points="0,-285.5 0,-304.5 84,-304.5 84,-285.5 0,-285.5"/>
<text text-anchor="middle" x="42" y="-292.5" font-family="Helvetica,sans-Serif" font-size="10.00">IEditorDelegate</text>
</a>
</g>
</g>
<!-- Node8 -->
<g id="node8" class="node"><title>Node8</title>
<g id="a_node8"><a xlink:href="class_i_g_editor_delegate.html" target="_top" xlink:title="An editor delegate base class for a SOMETHING that uses IGraphics for it&#39;s UI. ">
<polygon fill="white" stroke="black" points="120,-285.5 120,-304.5 212,-304.5 212,-285.5 120,-285.5"/>
<text text-anchor="middle" x="166" y="-292.5" font-family="Helvetica,sans-Serif" font-size="10.00">IGEditorDelegate</text>
</a>
</g>
</g>
<!-- Node7&#45;&gt;Node8 -->
<g id="edge4" class="edge"><title>Node7&#45;&gt;Node8</title>
<path fill="none" stroke="midnightblue" d="M94.4704,-295C102.945,-295 111.671,-295 119.972,-295"/>
<polygon fill="midnightblue" stroke="midnightblue" points="94.3037,-291.5 84.3036,-295 94.3036,-298.5 94.3037,-291.5"/>
</g>
<!-- Node9 -->
<g id="node9" class="node"><title>Node9</title>
<g id="a_node9"><a xlink:href="class_i_plugin_base.html" target="_top" xlink:title="Base class that contains plug&#45;in info and state manipulation methods. ">
<polygon fill="white" stroke="black" points="131.5,-323.5 131.5,-342.5 200.5,-342.5 200.5,-323.5 131.5,-323.5"/>
<text text-anchor="middle" x="166" y="-330.5" font-family="Helvetica,sans-Serif" font-size="10.00">IPluginBase</text>
</a>
</g>
</g>
<!-- Node7&#45;&gt;Node9 -->
<g id="edge5" class="edge"><title>Node7&#45;&gt;Node9</title>
<path fill="none" stroke="midnightblue" d="M83.7108,-307.68C100.195,-312.815 118.91,-318.644 134.224,-323.414"/>
<polygon fill="midnightblue" stroke="midnightblue" points="84.3742,-304.221 73.7858,-304.589 82.2925,-310.905 84.3742,-304.221"/>
</g>
<!-- Node18 -->
<g id="node18" class="node"><title>Node18</title>
<g id="a_node18"><a xlink:href="class_reaper_ext_base.html" target="_top" xlink:title="ReaperExtBase">
<polygon fill="white" stroke="black" points="123,-247.5 123,-266.5 209,-266.5 209,-247.5 123,-247.5"/>
<text text-anchor="middle" x="166" y="-254.5" font-family="Helvetica,sans-Serif" font-size="10.00">ReaperExtBase</text>
</a>
</g>
</g>
<!-- Node7&#45;&gt;Node18 -->
<g id="edge17" class="edge"><title>Node7&#45;&gt;Node18</title>
<path fill="none" stroke="midnightblue" d="M83.7108,-282.32C100.195,-277.185 118.91,-271.356 134.224,-266.586"/>
<polygon fill="midnightblue" stroke="midnightblue" points="82.2925,-279.095 73.7858,-285.411 84.3742,-285.779 82.2925,-279.095"/>
</g>
<!-- Node10 -->
<g id="node10" class="node"><title>Node10</title>
<g id="a_node10"><a xlink:href="class_i_plug_a_p_i_base.html" target="_top" xlink:title="The base class of an IPlug plug&#45;in, which interacts with the different plug&#45;in APIs. ">
<polygon fill="white" stroke="black" points="270,-323.5 270,-342.5 348,-342.5 348,-323.5 270,-323.5"/>
<text text-anchor="middle" x="309" y="-330.5" font-family="Helvetica,sans-Serif" font-size="10.00">IPlugAPIBase</text>
</a>
</g>
</g>
<!-- Node9&#45;&gt;Node10 -->
<g id="edge6" class="edge"><title>Node9&#45;&gt;Node10</title>
<path fill="none" stroke="midnightblue" d="M210.902,-333C229.76,-333 251.594,-333 269.776,-333"/>
<polygon fill="midnightblue" stroke="midnightblue" points="210.773,-329.5 200.773,-333 210.773,-336.5 210.773,-329.5"/>
</g>
<!-- Node10&#45;&gt;Node2 -->
<g id="edge7" class="edge"><title>Node10&#45;&gt;Node2</title>
<path fill="none" stroke="midnightblue" d="M324.197,-350.826C337.567,-368.336 357.375,-396.245 370,-423 393.58,-472.972 366.745,-503.112 406,-542 415.605,-551.515 429.698,-556.316 442.307,-558.718"/>
<polygon fill="midnightblue" stroke="midnightblue" points="326.765,-348.426 317.864,-342.678 321.238,-352.722 326.765,-348.426"/>
</g>
<!-- Node10&#45;&gt;Node4 -->
<g id="edge14" class="edge"><title>Node10&#45;&gt;Node4</title>
<path fill="none" stroke="midnightblue" d="M358.144,-343.51C420.34,-357.321 522.507,-380.891 538,-390 576.186,-412.45 608.07,-456.211 620.918,-475.49"/>
<polygon fill="midnightblue" stroke="midnightblue" points="358.67,-340.041 348.15,-341.298 357.158,-346.876 358.67,-340.041"/>
</g>
<!-- Node10&#45;&gt;Node6 -->
<g id="edge13" class="edge"><title>Node10&#45;&gt;Node6</title>
<path fill="none" stroke="midnightblue" d="M310.68,-313.223C313.552,-264.544 328.49,-139.033 406,-86 471.545,-41.1531 572.965,-91.9113 611.462,-114.382"/>
<polygon fill="midnightblue" stroke="midnightblue" points="307.177,-313.217 310.196,-323.373 314.169,-313.551 307.177,-313.217"/>
</g>
<!-- Node11 -->
<g id="node11" class="node"><title>Node11</title>
<g id="a_node11"><a xlink:href="class_i_plug_a_p_p.html" target="_top" xlink:title="Standalone application base class for an IPlug plug&#45;in. ">
<polygon fill="white" stroke="black" points="442.5,-399.5 442.5,-418.5 501.5,-418.5 501.5,-399.5 442.5,-399.5"/>
<text text-anchor="middle" x="472" y="-406.5" font-family="Helvetica,sans-Serif" font-size="10.00">IPlugAPP</text>
</a>
</g>
</g>
<!-- Node10&#45;&gt;Node11 -->
<g id="edge8" class="edge"><title>Node10&#45;&gt;Node11</title>
<path fill="none" stroke="midnightblue" d="M334.619,-347.601C353.725,-358.62 381.069,-373.715 406,-385 417.726,-390.308 431.005,-395.371 442.491,-399.468"/>
<polygon fill="midnightblue" stroke="midnightblue" points="336.352,-344.56 325.949,-342.554 332.83,-350.61 336.352,-344.56"/>
</g>
<!-- Node12 -->
<g id="node12" class="node"><title>Node12</title>
<g id="a_node12"><a xlink:href="class_i_plug_a_u.html" target="_top" xlink:title="AudioUnit v2 API base class for an IPlug plug&#45;in. ">
<polygon fill="white" stroke="black" points="445.5,-437.5 445.5,-456.5 498.5,-456.5 498.5,-437.5 445.5,-437.5"/>
<text text-anchor="middle" x="472" y="-444.5" font-family="Helvetica,sans-Serif" font-size="10.00">IPlugAU</text>
</a>
</g>
</g>
<!-- Node10&#45;&gt;Node12 -->
<g id="edge9" class="edge"><title>Node10&#45;&gt;Node12</title>
<path fill="none" stroke="midnightblue" d="M323.181,-350.59C340.083,-371.939 371.373,-407.606 406,-428 418.055,-435.1 432.948,-439.705 445.435,-442.6"/>
<polygon fill="midnightblue" stroke="midnightblue" points="325.932,-348.425 317.044,-342.659 320.396,-352.709 325.932,-348.425"/>
</g>
<!-- Node13 -->
<g id="node13" class="node"><title>Node13</title>
<g id="a_node13"><a xlink:href="class_i_plug_v_s_t2.html" target="_top" xlink:title="VST2.4 API base class for an IPlug plug&#45;in. ">
<polygon fill="white" stroke="black" points="440,-323.5 440,-342.5 504,-342.5 504,-323.5 440,-323.5"/>
<text text-anchor="middle" x="472" y="-330.5" font-family="Helvetica,sans-Serif" font-size="10.00">IPlugVST2</text>
</a>
</g>
</g>
<!-- Node10&#45;&gt;Node13 -->
<g id="edge10" class="edge"><title>Node10&#45;&gt;Node13</title>
<path fill="none" stroke="midnightblue" d="M358.354,-333C384.786,-333 416.75,-333 439.867,-333"/>
<polygon fill="midnightblue" stroke="midnightblue" points="358.155,-329.5 348.155,-333 358.155,-336.5 358.155,-329.5"/>
</g>
<!-- Node15 -->
<g id="node15" class="node"><title>Node15</title>
<g id="a_node15"><a xlink:href="class_i_plug_v_s_t3.html" target="_top" xlink:title="VST3 base class for a non&#45;distributed IPlug VST3 plug&#45;in. ">
<polygon fill="white" stroke="black" points="596,-266.5 596,-285.5 660,-285.5 660,-266.5 596,-266.5"/>
<text text-anchor="middle" x="628" y="-273.5" font-family="Helvetica,sans-Serif" font-size="10.00">IPlugVST3</text>
</a>
</g>
</g>
<!-- Node10&#45;&gt;Node15 -->
<g id="edge12" class="edge"><title>Node10&#45;&gt;Node15</title>
<path fill="none" stroke="midnightblue" d="M329.37,-317.203C347.8,-303.268 376.955,-283.973 406,-276 471.674,-257.972 552.522,-264.944 595.929,-270.915"/>
<polygon fill="midnightblue" stroke="midnightblue" points="327.207,-314.451 321.463,-323.354 331.505,-319.976 327.207,-314.451"/>
</g>
<!-- Node16 -->
<g id="node16" class="node"><title>Node16</title>
<g id="a_node16"><a xlink:href="class_i_plug_w_a_m.html" target="_top" xlink:title="WebAudioModule (WAM) API base class. ">
<polygon fill="white" stroke="black" points="440,-19.5 440,-38.5 504,-38.5 504,-19.5 440,-19.5"/>
<text text-anchor="middle" x="472" y="-26.5" font-family="Helvetica,sans-Serif" font-size="10.00">IPlugWAM</text>
</a>
</g>
</g>
<!-- Node10&#45;&gt;Node16 -->
<g id="edge15" class="edge"><title>Node10&#45;&gt;Node16</title>
<path fill="none" stroke="midnightblue" d="M311.146,-313.084C315.104,-262.614 332.375,-128.369 406,-53 414.994,-43.7926 427.825,-38.0893 439.714,-34.5694"/>
<polygon fill="midnightblue" stroke="midnightblue" points="307.638,-313.068 310.442,-323.285 314.622,-313.55 307.638,-313.068"/>
</g>
<!-- Node17 -->
<g id="node17" class="node"><title>Node17</title>
<g id="a_node17"><a xlink:href="class_i_plug_web.html" target="_top" xlink:title="This is used for the UI &quot;editor&quot; &#45; controller side of a WAM or remote editors that communicate with d...">
<polygon fill="white" stroke="black" points="442.5,-171.5 442.5,-190.5 501.5,-190.5 501.5,-171.5 442.5,-171.5"/>
<text text-anchor="middle" x="472" y="-178.5" font-family="Helvetica,sans-Serif" font-size="10.00">IPlugWeb</text>
</a>
</g>
</g>
<!-- Node10&#45;&gt;Node17 -->
<g id="edge16" class="edge"><title>Node10&#45;&gt;Node17</title>
<path fill="none" stroke="midnightblue" d="M318.681,-313.857C332.81,-284.857 363.533,-229.997 406,-200 416.659,-192.471 430.295,-187.899 442.322,-185.135"/>
<polygon fill="midnightblue" stroke="midnightblue" points="315.338,-312.741 314.235,-323.278 321.668,-315.728 315.338,-312.741"/>
</g>
<!-- Node14 -->
<g id="node14" class="node"><title>Node14</title>
<g id="a_node14"><a xlink:href="class_i_plug_reaper_v_s_t2.html" target="_top" xlink:title="Reaper specific VST2.4 API base class for an IPlug plug&#45;in. ">
<polygon fill="white" stroke="black" points="580.5,-323.5 580.5,-342.5 675.5,-342.5 675.5,-323.5 580.5,-323.5"/>
<text text-anchor="middle" x="628" y="-330.5" font-family="Helvetica,sans-Serif" font-size="10.00">IPlugReaperVST2</text>
</a>
</g>
</g>
<!-- Node13&#45;&gt;Node14 -->
<g id="edge11" class="edge"><title>Node13&#45;&gt;Node14</title>
<path fill="none" stroke="midnightblue" d="M514.381,-333C534.742,-333 559.364,-333 580.387,-333"/>
<polygon fill="midnightblue" stroke="midnightblue" points="514.164,-329.5 504.164,-333 514.164,-336.5 514.164,-329.5"/>
</g>
<!-- Node19 -->
<g id="node19" class="node"><title>Node19</title>
<polygon fill="white" stroke="#bfbfbf" points="435,-133.5 435,-152.5 509,-152.5 509,-133.5 435,-133.5"/>
<text text-anchor="middle" x="472" y="-140.5" font-family="Helvetica,sans-Serif" font-size="10.00">IMidiMapping</text>
</g>
<!-- Node19&#45;&gt;Node6 -->
<g id="edge18" class="edge"><title>Node19&#45;&gt;Node6</title>
<path fill="none" stroke="midnightblue" d="M519.098,-137.313C536.631,-135.149 556.726,-132.67 574.785,-130.442"/>
<polygon fill="midnightblue" stroke="midnightblue" points="518.602,-133.847 509.106,-138.545 519.46,-140.794 518.602,-133.847"/>
</g>
<!-- Node20 -->
<g id="node20" class="node"><title>Node20</title>
<g id="a_node20"><a xlink:href="class_i_plug_processor.html" target="_top" xlink:title="IPlugProcessor\&lt; float \&gt;">
<polygon fill="white" stroke="black" points="249,-0.5 249,-19.5 369,-19.5 369,-0.5 249,-0.5"/>
<text text-anchor="middle" x="309" y="-7.5" font-family="Helvetica,sans-Serif" font-size="10.00">IPlugProcessor&lt; float &gt;</text>
</a>
</g>
</g>
<!-- Node20&#45;&gt;Node16 -->
<g id="edge19" class="edge"><title>Node20&#45;&gt;Node16</title>
<path fill="none" stroke="midnightblue" d="M379.032,-18.1466C400.293,-20.6557 422.644,-23.2934 439.987,-25.3401"/>
<polygon fill="midnightblue" stroke="midnightblue" points="379.378,-14.6632 369.036,-16.967 378.557,-21.615 379.378,-14.6632"/>
</g>
<!-- Node21 -->
<g id="node21" class="node"><title>Node21</title>
<g id="a_node21"><a xlink:href="class_i_plug_processor.html" target="_top" xlink:title="IPlugProcessor\&lt; PLUG\l_SAMPLE_DST \&gt;">
<polygon fill="white" stroke="black" points="249.5,-432 249.5,-462 368.5,-462 368.5,-432 249.5,-432"/>
<text text-anchor="start" x="257.5" y="-450" font-family="Helvetica,sans-Serif" font-size="10.00">IPlugProcessor&lt; PLUG</text>
<text text-anchor="middle" x="309" y="-439" font-family="Helvetica,sans-Serif" font-size="10.00">_SAMPLE_DST &gt;</text>
</a>
</g>
</g>
<!-- Node21&#45;&gt;Node2 -->
<g id="edge20" class="edge"><title>Node21&#45;&gt;Node2</title>
<path fill="none" stroke="midnightblue" d="M327.688,-470.194C345.308,-491.763 374.251,-523.301 406,-542 417.042,-548.504 430.465,-552.913 442.24,-555.834"/>
<polygon fill="midnightblue" stroke="midnightblue" points="330.266,-467.813 321.29,-462.185 324.797,-472.182 330.266,-467.813"/>
</g>
<!-- Node21&#45;&gt;Node11 -->
<g id="edge21" class="edge"><title>Node21&#45;&gt;Node11</title>
<path fill="none" stroke="midnightblue" d="M378.447,-430.845C400.914,-425.542 424.662,-419.937 442.477,-415.732"/>
<polygon fill="midnightblue" stroke="midnightblue" points="377.509,-427.47 368.58,-433.174 379.117,-434.283 377.509,-427.47"/>
</g>
<!-- Node21&#45;&gt;Node12 -->
<g id="edge22" class="edge"><title>Node21&#45;&gt;Node12</title>
<path fill="none" stroke="midnightblue" d="M378.628,-447C402.331,-447 427.439,-447 445.485,-447"/>
<polygon fill="midnightblue" stroke="midnightblue" points="378.58,-443.5 368.58,-447 378.58,-450.5 378.58,-443.5"/>
</g>
<!-- Node21&#45;&gt;Node13 -->
<g id="edge23" class="edge"><title>Node21&#45;&gt;Node13</title>
<path fill="none" stroke="midnightblue" d="M339.81,-425.892C374.938,-401.019 431.777,-360.772 457.54,-342.53"/>
<polygon fill="midnightblue" stroke="midnightblue" points="337.518,-423.226 331.38,-431.862 341.563,-428.939 337.518,-423.226"/>
</g>
<!-- Node22 -->
<g id="node22" class="node"><title>Node22</title>
<g id="a_node22"><a xlink:href="class_i_plug_v_s_t3_processor_base.html" target="_top" xlink:title="Shared VST3 processor code. ">
<polygon fill="white" stroke="black" points="406.5,-475.5 406.5,-494.5 537.5,-494.5 537.5,-475.5 406.5,-475.5"/>
<text text-anchor="middle" x="472" y="-482.5" font-family="Helvetica,sans-Serif" font-size="10.00">IPlugVST3ProcessorBase</text>
</a>
</g>
</g>
<!-- Node21&#45;&gt;Node22 -->
<g id="edge24" class="edge"><title>Node21&#45;&gt;Node22</title>
<path fill="none" stroke="midnightblue" d="M378.317,-463.125C396.033,-467.306 414.556,-471.678 430.344,-475.404"/>
<polygon fill="midnightblue" stroke="midnightblue" points="379.117,-459.717 368.58,-460.826 377.509,-466.53 379.117,-459.717"/>
</g>
<!-- Node22&#45;&gt;Node4 -->
<g id="edge26" class="edge"><title>Node22&#45;&gt;Node4</title>
<path fill="none" stroke="midnightblue" d="M548.059,-485C556.779,-485 565.533,-485 573.872,-485"/>
<polygon fill="midnightblue" stroke="midnightblue" points="547.864,-481.5 537.864,-485 547.863,-488.5 547.864,-481.5"/>
</g>
<!-- Node22&#45;&gt;Node15 -->
<g id="edge25" class="edge"><title>Node22&#45;&gt;Node15</title>
<path fill="none" stroke="midnightblue" d="M534,-469.693C535.41,-468.548 536.748,-467.319 538,-466 585.802,-415.654 535.337,-371.662 574,-314 582.26,-301.681 595.945,-292.019 607.34,-285.521"/>
<polygon fill="midnightblue" stroke="midnightblue" points="531.735,-466.991 525.257,-475.374 535.549,-472.86 531.735,-466.991"/>
</g>
<!-- Node23 -->
<g id="node23" class="node"><title>Node23</title>
<g id="a_node23"><a xlink:href="class_i_plug_v_s_t3_controller_base.html" target="_top" xlink:title="Shared VST3 controller code. ">
<polygon fill="white" stroke="black" points="408,-209.5 408,-228.5 536,-228.5 536,-209.5 408,-209.5"/>
<text text-anchor="middle" x="472" y="-216.5" font-family="Helvetica,sans-Serif" font-size="10.00">IPlugVST3ControllerBase</text>
</a>
</g>
</g>
<!-- Node23&#45;&gt;Node6 -->
<g id="edge28" class="edge"><title>Node23&#45;&gt;Node6</title>
<path fill="none" stroke="midnightblue" d="M524.772,-206.073C529.349,-204.275 533.824,-202.257 538,-200 571.424,-181.932 603.507,-149.708 618.373,-133.649"/>
<polygon fill="midnightblue" stroke="midnightblue" points="523.537,-202.798 515.299,-209.461 525.894,-209.389 523.537,-202.798"/>
</g>
<!-- Node23&#45;&gt;Node15 -->
<g id="edge27" class="edge"><title>Node23&#45;&gt;Node15</title>
<path fill="none" stroke="midnightblue" d="M508.557,-232.119C518.118,-235.649 528.454,-239.468 538,-243 559.328,-250.892 583.524,-259.865 601.299,-266.46"/>
<polygon fill="midnightblue" stroke="midnightblue" points="509.533,-228.748 498.939,-228.568 507.108,-235.315 509.533,-228.748"/>
</g>
<!-- Node24 -->
<g id="node24" class="node"><title>Node24</title>
<polygon fill="white" stroke="#bfbfbf" points="278.5,-38.5 278.5,-57.5 339.5,-57.5 339.5,-38.5 278.5,-38.5"/>
<text text-anchor="middle" x="309" y="-45.5" font-family="Helvetica,sans-Serif" font-size="10.00">Processor</text>
</g>
<!-- Node24&#45;&gt;Node16 -->
<g id="edge29" class="edge"><title>Node24&#45;&gt;Node16</title>
<path fill="none" stroke="midnightblue" d="M349.699,-43.315C377.465,-40.0383 414.034,-35.7227 439.734,-32.6898"/>
<polygon fill="midnightblue" stroke="midnightblue" points="349.051,-39.8671 339.53,-44.5151 349.871,-46.8189 349.051,-39.8671"/>
</g>
<!-- Node25 -->
<g id="node25" class="node"><title>Node25</title>
<polygon fill="white" stroke="#bfbfbf" points="412,-285.5 412,-304.5 532,-304.5 532,-285.5 412,-285.5"/>
<text text-anchor="middle" x="472" y="-292.5" font-family="Helvetica,sans-Serif" font-size="10.00">SingleComponentEffect</text>
</g>
<!-- Node25&#45;&gt;Node15 -->
<g id="edge30" class="edge"><title>Node25&#45;&gt;Node15</title>
<path fill="none" stroke="midnightblue" d="M542.138,-286.47C560.917,-284.153 580.327,-281.758 595.836,-279.845"/>
<polygon fill="midnightblue" stroke="midnightblue" points="541.596,-283.01 532.1,-287.708 542.453,-289.958 541.596,-283.01"/>
</g>
</g>
</svg>
