<?xml version="1.0" encoding="UTF-8" standalone="no"?>
<!DOCTYPE svg PUBLIC "-//W3C//DTD SVG 1.1//EN"
 "http://www.w3.org/Graphics/SVG/1.1/DTD/svg11.dtd">
<!-- Generated by graphviz version 2.36.0 (20140111.2315)
 -->
<!-- Title: Graphical Class Hierarchy Pages: 1 -->
<svg width="304pt" height="104pt"
 viewBox="0.00 0.00 304.00 104.00" xmlns="http://www.w3.org/2000/svg" xmlns:xlink="http://www.w3.org/1999/xlink">
<g id="graph0" class="graph" transform="scale(1 1) rotate(0) translate(4 100)">
<title>Graphical Class Hierarchy</title>
<polygon fill="white" stroke="none" points="-4,4 -4,-100 300,-100 300,4 -4,4"/>
<!-- Node1 -->
<g id="node1" class="node"><title>Node1</title>
<g id="a_node1"><a xlink:href="class_platform_font.html" target="_top" xlink:title="/todo ">
<polygon fill="white" stroke="black" points="0.5,-38.5 0.5,-57.5 73.5,-57.5 73.5,-38.5 0.5,-38.5"/>
<text text-anchor="middle" x="37" y="-45.5" font-family="Helvetica,sans-Serif" font-size="10.00">PlatformFont</text>
</a>
</g>
</g>
<!-- Node2 -->
<g id="node2" class="node"><title>Node2</title>
<g id="a_node2"><a xlink:href="class_core_text_font.html" target="_top" xlink:title="CoreTextFont">
<polygon fill="white" stroke="black" points="110.5,-76.5 110.5,-95.5 187.5,-95.5 187.5,-76.5 110.5,-76.5"/>
<text text-anchor="middle" x="149" y="-83.5" font-family="Helvetica,sans-Serif" font-size="10.00">CoreTextFont</text>
</a>
</g>
</g>
<!-- Node1&#45;&gt;Node2 -->
<g id="edge1" class="edge"><title>Node1&#45;&gt;Node2</title>
<path fill="none" stroke="midnightblue" d="M75.5499,-60.9718C90.2049,-66.0344 106.704,-71.7341 120.251,-76.4141"/>
<polygon fill="midnightblue" stroke="midnightblue" points="76.3524,-57.5461 65.7576,-57.589 74.0667,-64.1624 76.3524,-57.5461"/>
</g>
<!-- Node3 -->
<g id="node3" class="node"><title>Node3</title>
<g id="a_node3"><a xlink:href="class_web_font.html" target="_top" xlink:title="WebFont">
<polygon fill="white" stroke="black" points="121,-38.5 121,-57.5 177,-57.5 177,-38.5 121,-38.5"/>
<text text-anchor="middle" x="149" y="-45.5" font-family="Helvetica,sans-Serif" font-size="10.00">WebFont</text>
</a>
</g>
</g>
<!-- Node1&#45;&gt;Node3 -->
<g id="edge2" class="edge"><title>Node1&#45;&gt;Node3</title>
<path fill="none" stroke="midnightblue" d="M84.0274,-48C96.5546,-48 109.72,-48 120.829,-48"/>
<polygon fill="midnightblue" stroke="midnightblue" points="83.7139,-44.5001 73.7138,-48 83.7138,-51.5001 83.7139,-44.5001"/>
</g>
<!-- Node5 -->
<g id="node5" class="node"><title>Node5</title>
<g id="a_node5"><a xlink:href="class_win_font.html" target="_top" xlink:title="WinFont">
<polygon fill="white" stroke="black" points="122.5,-0.5 122.5,-19.5 175.5,-19.5 175.5,-0.5 122.5,-0.5"/>
<text text-anchor="middle" x="149" y="-7.5" font-family="Helvetica,sans-Serif" font-size="10.00">WinFont</text>
</a>
</g>
</g>
<!-- Node1&#45;&gt;Node5 -->
<g id="edge4" class="edge"><title>Node1&#45;&gt;Node5</title>
<path fill="none" stroke="midnightblue" d="M75.4983,-35.046C90.8544,-29.7412 108.243,-23.7344 122.14,-18.9333"/>
<polygon fill="midnightblue" stroke="midnightblue" points="74.0667,-31.8376 65.7576,-38.411 76.3524,-38.4539 74.0667,-31.8376"/>
</g>
<!-- Node4 -->
<g id="node4" class="node"><title>Node4</title>
<g id="a_node4"><a xlink:href="class_web_file_font.html" target="_top" xlink:title="WebFileFont">
<polygon fill="white" stroke="black" points="224,-38.5 224,-57.5 296,-57.5 296,-38.5 224,-38.5"/>
<text text-anchor="middle" x="260" y="-45.5" font-family="Helvetica,sans-Serif" font-size="10.00">WebFileFont</text>
</a>
</g>
</g>
<!-- Node3&#45;&gt;Node4 -->
<g id="edge3" class="edge"><title>Node3&#45;&gt;Node4</title>
<path fill="none" stroke="midnightblue" d="M187.267,-48C199.124,-48 212.194,-48 223.893,-48"/>
<polygon fill="midnightblue" stroke="midnightblue" points="187.224,-44.5001 177.224,-48 187.224,-51.5001 187.224,-44.5001"/>
</g>
</g>
</svg>
