<?xml version="1.0" encoding="UTF-8" standalone="no"?>
<!DOCTYPE svg PUBLIC "-//W3C//DTD SVG 1.1//EN"
 "http://www.w3.org/Graphics/SVG/1.1/DTD/svg11.dtd">
<!-- Generated by graphviz version 2.36.0 (20140111.2315)
 -->
<!-- Title: Graphical Class Hierarchy Pages: 1 -->
<svg width="190pt" height="66pt"
 viewBox="0.00 0.00 190.00 66.00" xmlns="http://www.w3.org/2000/svg" xmlns:xlink="http://www.w3.org/1999/xlink">
<g id="graph0" class="graph" transform="scale(1 1) rotate(0) translate(4 62)">
<title>Graphical Class Hierarchy</title>
<polygon fill="white" stroke="none" points="-4,4 -4,-62 186,-62 186,4 -4,4"/>
<!-- Node1 -->
<g id="node1" class="node"><title>Node1</title>
<g id="a_node1"><a xlink:href="class_i_font_info.html" target="_top" xlink:title="Used to retrieve font info directly from a raw memory buffer. ">
<polygon fill="white" stroke="black" points="15,-38.5 15,-57.5 71,-57.5 71,-38.5 15,-38.5"/>
<text text-anchor="middle" x="43" y="-45.5" font-family="Helvetica,sans-Serif" font-size="10.00">IFontInfo</text>
</a>
</g>
</g>
<!-- Node2 -->
<g id="node2" class="node"><title>Node2</title>
<g id="a_node2"><a xlink:href="class_i_font_data.html" target="_top" xlink:title="Used to manage raw font data. ">
<polygon fill="white" stroke="black" points="122,-19.5 122,-38.5 182,-38.5 182,-19.5 122,-19.5"/>
<text text-anchor="middle" x="152" y="-26.5" font-family="Helvetica,sans-Serif" font-size="10.00">IFontData</text>
</a>
</g>
</g>
<!-- Node1&#45;&gt;Node2 -->
<g id="edge1" class="edge"><title>Node1&#45;&gt;Node2</title>
<path fill="none" stroke="midnightblue" d="M80.8589,-41.455C94.2256,-39.0814 109.131,-36.4346 121.753,-34.1934"/>
<polygon fill="midnightblue" stroke="midnightblue" points="80.2346,-38.011 71.0006,-43.2055 81.4585,-44.9032 80.2346,-38.011"/>
</g>
<!-- Node3 -->
<g id="node3" class="node"><title>Node3</title>
<polygon fill="white" stroke="#bfbfbf" points="0,-0.5 0,-19.5 86,-19.5 86,-0.5 0,-0.5"/>
<text text-anchor="middle" x="43" y="-7.5" font-family="Helvetica,sans-Serif" font-size="10.00">WDL_TypedBuf</text>
</g>
<!-- Node3&#45;&gt;Node2 -->
<g id="edge2" class="edge"><title>Node3&#45;&gt;Node2</title>
<path fill="none" stroke="#8b1a1a" d="M96.1875,-19.2669C105.018,-20.835 113.896,-22.4115 121.859,-23.8254"/>
<polygon fill="#8b1a1a" stroke="#8b1a1a" points="96.7472,-15.8116 86.2892,-17.5093 95.5233,-22.7038 96.7472,-15.8116"/>
</g>
</g>
</svg>
